SplineFontDB: 3.0
FontName: Bodoni-48-Fatface
FullName: Bodoni* 48 Fatface
FamilyName: Bodoni* 48 Fatface
Weight: Fatface
Copyright: Copyright (c) 2017, Owen Earl,,, (EwonRael@yahoo.com)
Version: 001.0
ItalicAngle: 0
UnderlinePosition: -100
UnderlineWidth: 50
Ascent: 800
Descent: 200
InvalidEm: 0
LayerCount: 2
Layer: 0 0 "Back" 1
Layer: 1 0 "Fore" 0
PreferredKerning: 4
XUID: [1021 31 -699969567 16487490]
FSType: 0
OS2Version: 0
OS2_WeightWidthSlopeOnly: 0
OS2_UseTypoMetrics: 1
CreationTime: 1460762150
ModificationTime: 1548285512
PfmFamily: 17
TTFWeight: 900
TTFWidth: 5
LineGap: 100
VLineGap: 0
OS2TypoAscent: 800
OS2TypoAOffset: 0
OS2TypoDescent: -200
OS2TypoDOffset: 0
OS2TypoLinegap: 100
OS2WinAscent: 1000
OS2WinAOffset: 0
OS2WinDescent: 400
OS2WinDOffset: 0
HheadAscent: 1000
HheadAOffset: 0
HheadDescent: -200
HheadDOffset: 0
OS2CapHeight: 700
OS2XHeight: 460
OS2FamilyClass: 768
OS2Vendor: 'PfEd'
OS2UnicodeRanges: 00000001.00000000.00000000.00000000
Lookup: 1 0 0 "'ss02' Style Set 2 lookup 4" { "'ss02' Style Set 2 lookup 4-1"  } ['ss02' ('DFLT' <'dflt' > 'grek' <'dflt' > 'latn' <'dflt' > ) ]
Lookup: 1 0 0 "'ss03' Style Set 3 lookup 5" { "'ss03' Style Set 3 lookup 5-1"  } ['ss03' ('DFLT' <'dflt' > 'grek' <'dflt' > 'latn' <'dflt' > ) ]
Lookup: 1 0 0 "'ss01' Style Set 1 lookup 2" { "'ss01' Style Set 1 lookup 2-1"  } ['ss01' ('DFLT' <'dflt' > 'grek' <'dflt' > 'latn' <'dflt' > ) ]
Lookup: 5 0 0 "'calt' Contextual Alternates lookup 3" { "'calt' Contextual Alternates lookup 3-1"  } ['calt' ('DFLT' <'dflt' > 'grek' <'dflt' > 'latn' <'dflt' > ) ]
Lookup: 4 0 1 "'liga' Standard Ligatures lookup 0" { "'liga' Standard Ligatures lookup 0-1"  } ['liga' ('DFLT' <'dflt' > 'grek' <'dflt' > 'latn' <'dflt' > ) ]
Lookup: 258 0 0 "'kern' Horizontal Kerning lookup 0" { "kerning like they all do" [150,0,6] } ['kern' ('DFLT' <'dflt' > 'grek' <'dflt' > 'latn' <'dflt' > ) ]
MarkAttachClasses: 1
DEI: 91125
KernClass2: 30 27 "kerning like they all do"

StartChar: ampersand
Encoding: 38 38 0
GlifName: ampersand
Width: 919
Flags: HMW
LayerCount: 2
Fore
SplineSet
624 460 m 1
 864 460 l 1
 864 456 l 1
 624 456 l 1
 624 460 l 1
760 459 m 1
 738 236 602 -10 299 -10 c 0
 116 -10 40 77 40 180 c 0
 40 353 296 396 356 437 c 0
 433 493 481 467 481 640 c 0
 481 707 471 756 434 756 c 0
 402 756 386 713 386 670 c 0
 386 625 421 554 464 490 c 2
 781 4 l 1
 899 4 l 1
 899 0 l 1
 545 0 l 1
 214 490 l 2
 188 528 168 578 168 613 c 0
 168 703 273 760 439 760 c 0
 596 760 685 717 685 646 c 0
 685 522 512 551 347 429 c 0
 288 385 261 413 261 271 c 0
 261 140 336 27 430 27 c 0
 577 27 736 221 756 459 c 1
 760 459 l 1
EndSplineSet
EndChar

StartChar: period
Encoding: 46 46 1
GlifName: period
Width: 320
Flags: HMW
LayerCount: 2
Fore
SplineSet
40 110 m 0
 40 176 94 230 160 230 c 0
 226 230 280 176 280 110 c 0
 280 44 226 -10 160 -10 c 0
 94 -10 40 44 40 110 c 0
EndSplineSet
EndChar

StartChar: zero
Encoding: 48 48 2
GlifName: zero
Width: 700
Flags: HMW
LayerCount: 2
Fore
SplineSet
350 -10 m 0
 167 -10 40 152 40 375 c 0
 40 598 177 760 350 760 c 0
 523 760 660 598 660 375 c 0
 660 152 533 -10 350 -10 c 0
350 756 m 0
 286 756 275 607 275 375 c 0
 275 143 276 -6 350 -6 c 0
 424 -6 425 143 425 375 c 0
 425 607 424 756 350 756 c 0
EndSplineSet
EndChar

StartChar: one
Encoding: 49 49 3
GlifName: one
Width: 555
VWidth: 1155
Flags: HMW
LayerCount: 2
Fore
SplineSet
50 4 m 1
 505 4 l 1
 505 0 l 1
 50 0 l 1
 50 4 l 1
67 750 m 1
 395 750 l 1
 395 2 l 1
 180 2 l 1
 180 746 l 1
 67 746 l 1
 67 750 l 1
EndSplineSet
EndChar

StartChar: two
Encoding: 50 50 4
GlifName: two
Width: 650
VWidth: 1155
Flags: HMW
LayerCount: 2
Fore
SplineSet
615 0 m 1
 40 0 l 1
 40 135 l 1
 246 265 l 2
 331 320 374 386 374 510 c 0
 374 644 320 733 242 733 c 0
 140 733 56 648 55 551 c 1
 70 603 114 642 170 642 c 0
 248 642 298 591 298 526 c 0
 298 456 230 407 165 407 c 0
 100 407 49 457 49 549 c 0
 49 666 158 760 325 760 c 0
 496 760 594 680 594 570 c 0
 594 440 449 383 355 325 c 2
 169 210 l 1
 611 210 l 1
 611 285 l 1
 615 285 l 1
 615 0 l 1
EndSplineSet
EndChar

StartChar: three
Encoding: 51 51 5
GlifName: three
Width: 621
VWidth: 1155
Flags: HMW
LayerCount: 2
Fore
SplineSet
581 210 m 0
 581 70 442 -10 281 -10 c 0
 109 -10 25 94 25 186 c 0
 25 257 75 306 140 306 c 0
 200 306 244 262 244 196 c 0
 244 134 191 90 132 90 c 0
 92 90 64 103 42 130 c 1
 61 70 135 2 250 2 c 0
 349 2 360 86 360 210 c 0
 360 314 332 403 213 403 c 1
 213 407 l 1
 474 407 581 330 581 210 c 0
213 403 m 1
 213 407 l 1
 322 407 330 517 330 591 c 0
 330 675 314 748 255 748 c 0
 187 748 113 703 88 662 c 1
 111 689 143 699 172 699 c 0
 221 699 269 659 269 599 c 0
 269 534 217 488 162 488 c 0
 102 488 55 524 55 590 c 0
 55 692 179 759 281 759 c 0
 432 759 551 691 551 581 c 0
 551 481 464 403 213 403 c 1
EndSplineSet
EndChar

StartChar: four
Encoding: 52 52 6
GlifName: four
Width: 685
VWidth: 1155
Flags: HMW
LayerCount: 2
Fore
SplineSet
640 4 m 1
 640 0 l 1
 255 0 l 1
 255 4 l 1
 350 4 l 1
 350 650 l 1
 43 217 l 1
 675 217 l 1
 675 213 l 1
 35 213 l 1
 415 750 l 1
 565 750 l 1
 565 4 l 1
 640 4 l 1
EndSplineSet
Substitution2: "'ss03' Style Set 3 lookup 5-1" four.alt
EndChar

StartChar: five
Encoding: 53 53 7
GlifName: five
Width: 570
VWidth: 1155
Flags: HMW
LayerCount: 2
Fore
SplineSet
505 540 m 1
 51 540 l 1
 51 337 l 1
 47 337 l 1
 47 750 l 1
 501 750 l 1
 501 805 l 1
 505 805 l 1
 505 540 l 1
14 88 m 1
 33 39 107 -2 185 -2 c 0
 274 -2 315 81 315 215 c 0
 315 369 288 428 209 428 c 0
 143 428 79 391 54 337 c 1
 49 337 l 1
 75 394 141 440 252 440 c 0
 423 440 540 365 540 215 c 0
 540 75 397 -10 216 -10 c 0
 104 -10 -10 37 -10 149 c 0
 -10 220 42 271 107 271 c 0
 172 271 224 230 224 160 c 0
 224 95 166 40 98 40 c 0
 61 40 32 60 14 88 c 1
EndSplineSet
EndChar

StartChar: six
Encoding: 54 54 8
GlifName: six
Width: 660
VWidth: 1155
Flags: HMW
LayerCount: 2
Fore
SplineSet
400 250 m 0
 400 434 381 476 342 476 c 0
 292 476 280 430 280 280 c 1
 276 280 l 1
 276 425 280 495 381 495 c 0
 502 495 630 420 630 250 c 0
 630 100 515 -10 344 -10 c 0
 173 -10 50 100 50 310 c 0
 50 553 252 760 555 760 c 1
 555 756 l 1
 371 756 279 551 279 344 c 1
 280 280 l 1
 280 96 298 -6 347 -6 c 0
 396 -6 400 86 400 250 c 0
EndSplineSet
EndChar

StartChar: seven
Encoding: 55 55 9
GlifName: seven
Width: 575
VWidth: 1155
Flags: HMW
LayerCount: 2
Fore
SplineSet
128 106 m 0
 128 185 246 270 324 378 c 0
 354 419 376 448 429 535 c 1
 44 535 l 1
 44 460 l 1
 40 460 l 1
 40 750 l 1
 565 750 l 1
 565 750 426 512 339 388 c 0
 286 312 272 297 272 272 c 0
 272 219 378 204 378 108 c 0
 378 41 328 -10 254 -10 c 0
 185 -10 128 27 128 106 c 0
EndSplineSet
EndChar

StartChar: eight
Encoding: 56 56 10
GlifName: eight
Width: 650
VWidth: 1155
Flags: HMW
LayerCount: 2
Fore
SplineSet
280 560 m 0
 280 426 296 395 325 395 c 0
 354 395 370 426 370 560 c 0
 370 684 354 740 325 740 c 0
 296 740 280 684 280 560 c 0
60 560 m 0
 60 670 154 760 325 760 c 0
 496 760 590 670 590 560 c 0
 590 450 496 380 325 380 c 0
 154 380 60 450 60 560 c 0
260 190 m 0
 260 76 276 10 325 10 c 0
 374 10 390 76 390 190 c 0
 390 304 374 375 325 375 c 0
 276 375 260 304 260 190 c 0
40 190 m 0
 40 310 134 390 325 390 c 0
 516 390 610 310 610 190 c 0
 610 70 516 -10 325 -10 c 0
 134 -10 40 70 40 190 c 0
EndSplineSet
EndChar

StartChar: A
Encoding: 65 65 12
GlifName: A_
Width: 830
Flags: HMW
LayerCount: 2
Fore
SplineSet
15 4 m 1
 235 4 l 1
 235 0 l 1
 15 0 l 1
 15 4 l 1
425 4 m 1
 815 4 l 1
 815 0 l 1
 425 0 l 1
 425 4 l 1
196 247 m 1
 515 247 l 1
 515 243 l 1
 196 243 l 1
 196 247 l 1
312 563 m 1
 114 0 l 1
 109 0 l 1
 380 765 l 1
 480 765 l 1
 745 0 l 1
 495 0 l 1
 312 563 l 1
EndSplineSet
EndChar

StartChar: B
Encoding: 66 66 13
GlifName: B_
Width: 765
Flags: HMW
LayerCount: 2
Fore
SplineSet
405 383 m 2
 275 383 l 1
 275 387 l 1
 365 387 l 2
 431 387 475 436 475 555 c 0
 475 674 431 746 365 746 c 2
 15 746 l 1
 15 750 l 1
 405 750 l 2
 586 750 695 695 695 565 c 0
 695 445 596 383 405 383 c 2
105 750 m 1
 320 750 l 1
 320 0 l 1
 105 0 l 1
 105 750 l 1
425 0 m 2
 15 0 l 1
 15 4 l 1
 375 4 l 2
 451 4 495 91 495 210 c 0
 495 329 451 383 375 383 c 2
 275 383 l 1
 275 387 l 1
 425 387 l 2
 596 387 725 340 725 190 c 0
 725 50 616 0 425 0 c 2
EndSplineSet
EndChar

StartChar: C
Encoding: 67 67 14
GlifName: C_
Width: 735
Flags: HMW
LayerCount: 2
Fore
SplineSet
681 750 m 1
 685 750 l 1
 685 515 l 1
 653 572 607 653 557 703 c 1
 681 750 l 1
685 515 m 1
 679 515 l 1
 610 651 542 751 430 751 c 0
 306 751 275 557 275 375 c 0
 275 193 306 -1 430 -1 c 0
 564 -1 630 104 690 235 c 1
 695 235 l 1
 635 92 563 -10 420 -10 c 0
 177 -10 40 152 40 375 c 0
 40 598 177 760 420 760 c 0
 548 760 615 658 685 515 c 1
695 235 m 1
 695 0 l 1
 691 0 l 1
 578 52 l 1
 630 103 669 182 695 235 c 1
EndSplineSet
EndChar

StartChar: D
Encoding: 68 68 15
GlifName: D_
Width: 815
Flags: HMW
LayerCount: 2
Fore
SplineSet
105 750 m 1
 320 750 l 1
 320 0 l 1
 105 0 l 1
 105 750 l 1
375 0 m 2
 15 0 l 1
 15 4 l 1
 375 4 l 2
 499 4 540 163 540 375 c 0
 540 587 489 746 375 746 c 2
 15 746 l 1
 15 750 l 1
 375 750 l 2
 628 750 775 608 775 375 c 0
 775 142 618 0 375 0 c 2
EndSplineSet
EndChar

StartChar: E
Encoding: 69 69 16
GlifName: E_
Width: 670
Flags: HMW
LayerCount: 2
Fore
SplineSet
636 225 m 1
 640 225 l 1
 640 0 l 1
 15 0 l 1
 15 4 l 1
 370 4 l 2
 507 4 606 98 636 225 c 1
105 750 m 1
 320 750 l 1
 320 0 l 1
 105 0 l 1
 105 750 l 1
15 750 m 1
 630 750 l 1
 630 545 l 1
 626 545 l 1
 596 652 497 746 380 746 c 2
 15 746 l 1
 15 750 l 1
486 248 m 1
 456 315 387 386 330 386 c 2
 270 386 l 1
 270 390 l 1
 330 390 l 2
 387 390 456 456 486 523 c 1
 490 523 l 1
 490 248 l 1
 486 248 l 1
EndSplineSet
EndChar

StartChar: F
Encoding: 70 70 17
GlifName: F_
Width: 640
Flags: HMW
LayerCount: 2
Fore
SplineSet
15 750 m 1
 610 750 l 1
 610 545 l 1
 606 545 l 1
 576 652 497 746 390 746 c 2
 15 746 l 1
 15 750 l 1
15 4 m 1
 420 4 l 1
 420 0 l 1
 15 0 l 1
 15 4 l 1
105 750 m 1
 320 750 l 1
 320 0 l 1
 105 0 l 1
 105 750 l 1
476 228 m 1
 446 295 392 371 325 371 c 2
 260 371 l 1
 260 375 l 1
 325 375 l 2
 392 375 446 446 476 513 c 1
 480 513 l 1
 480 228 l 1
 476 228 l 1
EndSplineSet
EndChar

StartChar: G
Encoding: 71 71 18
GlifName: G_
Width: 800
Flags: HMW
LayerCount: 2
Fore
SplineSet
725 515 m 1
 680 622 623 671 575 710 c 1
 721 750 l 1
 725 750 l 1
 725 515 l 1
420 287 m 1
 790 287 l 1
 790 283 l 1
 420 283 l 1
 420 287 l 1
525 284 m 1
 750 284 l 1
 750 145 l 1
 650 72 588 -10 425 -10 c 0
 187 -10 40 132 40 375 c 0
 40 618 237 760 440 760 c 0
 568 760 681 638 725 515 c 1
 721 515 l 1
 681 607 582 750 456 750 c 0
 332 750 275 557 275 375 c 0
 275 193 306 -4 425 -4 c 0
 469 -4 505 63 525 125 c 1
 525 284 l 1
EndSplineSet
EndChar

StartChar: H
Encoding: 72 72 19
GlifName: H_
Width: 850
Flags: HMW
LayerCount: 2
Fore
SplineSet
300 372 m 1
 550 372 l 1
 550 368 l 1
 300 368 l 1
 300 372 l 1
450 4 m 1
 835 4 l 1
 835 0 l 1
 450 0 l 1
 450 4 l 1
15 4 m 1
 400 4 l 1
 400 0 l 1
 15 0 l 1
 15 4 l 1
450 750 m 1
 835 750 l 1
 835 746 l 1
 450 746 l 1
 450 750 l 1
15 750 m 1
 400 750 l 1
 400 746 l 1
 15 746 l 1
 15 750 l 1
530 750 m 1
 745 750 l 1
 745 0 l 1
 530 0 l 1
 530 750 l 1
105 750 m 1
 320 750 l 1
 320 0 l 1
 105 0 l 1
 105 750 l 1
EndSplineSet
EndChar

StartChar: I
Encoding: 73 73 20
GlifName: I_
Width: 475
Flags: HMW
LayerCount: 2
Fore
SplineSet
15 4 m 1
 460 4 l 1
 460 0 l 1
 15 0 l 1
 15 4 l 1
15 750 m 1
 460 750 l 1
 460 746 l 1
 15 746 l 1
 15 750 l 1
125 750 m 1
 340 750 l 1
 340 0 l 1
 125 0 l 1
 125 750 l 1
EndSplineSet
EndChar

StartChar: J
Encoding: 74 74 21
GlifName: J_
Width: 641
Flags: HMW
LayerCount: 2
Fore
SplineSet
181 750 m 1
 626 750 l 1
 626 746 l 1
 181 746 l 1
 181 750 l 1
311 750 m 1
 526 750 l 1
 526 170 l 1
 466 50 397 -30 226 -30 c 0
 99 -30 10 25 10 125 c 0
 10 197 67 250 137 250 c 0
 202 250 253 202 253 131 c 0
 253 71 205 12 142 12 c 0
 97 12 59 27 44 45 c 1
 73 0 144 -26 220 -26 c 0
 291 -26 311 50 311 190 c 2
 311 750 l 1
EndSplineSet
Substitution2: "'ss02' Style Set 2 lookup 4-1" J.alt
EndChar

StartChar: K
Encoding: 75 75 22
GlifName: K_
Width: 855
Flags: HMW
LayerCount: 2
Fore
SplineSet
15 4 m 1
 400 4 l 1
 400 0 l 1
 15 0 l 1
 15 4 l 1
15 750 m 1
 420 750 l 1
 420 746 l 1
 15 746 l 1
 15 750 l 1
105 750 m 1
 320 750 l 1
 320 0 l 1
 105 0 l 1
 105 750 l 1
179 217 m 1
 172 217 l 1
 686 748 l 1
 693 748 l 1
 179 217 l 1
440 4 m 1
 850 4 l 1
 850 0 l 1
 440 0 l 1
 440 4 l 1
805 746 m 1
 565 746 l 1
 565 750 l 1
 805 750 l 1
 805 746 l 1
772 0 m 1
 532 0 l 1
 323 368 l 1
 468 520 l 1
 772 0 l 1
EndSplineSet
EndChar

StartChar: L
Encoding: 76 76 23
GlifName: L_
Width: 660
Flags: HMW
LayerCount: 2
Fore
SplineSet
105 750 m 1
 320 750 l 1
 320 0 l 1
 105 0 l 1
 105 750 l 1
15 750 m 1
 129 750 296 750 410 750 c 1
 410 746 l 1
 15 746 l 1
 15 750 l 1
640 0 m 1
 15 0 l 1
 15 4 l 1
 370 4 l 2
 507 4 606 98 636 225 c 1
 640 225 l 1
 640 0 l 1
EndSplineSet
EndChar

StartChar: M
Encoding: 77 77 24
GlifName: M_
Width: 940
Flags: HMW
LayerCount: 2
Fore
SplineSet
925 750 m 1
 925 746 l 1
 855 746 l 1
 855 0 l 1
 640 0 l 1
 640 750 l 1
 925 750 l 1
20 4 m 1
 173 4 l 1
 173 0 l 1
 20 0 l 1
 20 4 l 1
560 4 m 1
 925 4 l 1
 925 0 l 1
 560 0 l 1
 560 4 l 1
479 298 m 1
 638 750 l 1
 642 750 l 1
 377 -10 l 1
 371 -10 l 1
 93 750 l 1
 309 750 l 1
 479 298 l 1
91 746 m 1
 15 746 l 1
 15 750 l 1
 96 750 l 1
 96 0 l 1
 91 0 l 1
 91 746 l 1
EndSplineSet
EndChar

StartChar: N
Encoding: 78 78 25
GlifName: N_
Width: 766
Flags: HMW
LayerCount: 2
Fore
SplineSet
643 750 m 1
 647 750 l 1
 647 -10 l 1
 641 -10 l 1
 115 750 l 1
 370 750 l 1
 643 357 l 1
 643 750 l 1
533 750 m 1
 752 750 l 1
 752 746 l 1
 533 746 l 1
 533 750 l 1
15 4 m 1
 231 4 l 1
 231 0 l 1
 15 0 l 1
 15 4 l 1
115 746 m 1
 15 746 l 1
 15 750 l 1
 120 750 l 1
 120 0 l 1
 115 0 l 1
 115 746 l 1
EndSplineSet
EndChar

StartChar: O
Encoding: 79 79 26
GlifName: O_
Width: 800
Flags: HMW
LayerCount: 2
Fore
SplineSet
400 -10 m 0
 177 -10 40 152 40 375 c 0
 40 598 187 760 400 760 c 0
 613 760 760 598 760 375 c 0
 760 152 623 -10 400 -10 c 0
400 756 m 0
 306 756 275 607 275 375 c 0
 275 143 296 -6 400 -6 c 0
 504 -6 525 143 525 375 c 0
 525 607 494 756 400 756 c 0
EndSplineSet
EndChar

StartChar: P
Encoding: 80 80 27
GlifName: P_
Width: 735
Flags: HMW
LayerCount: 2
Fore
SplineSet
105 750 m 1
 320 750 l 1
 320 0 l 1
 105 0 l 1
 105 750 l 1
15 4 m 1
 410 4 l 1
 410 0 l 1
 15 0 l 1
 15 4 l 1
410 338 m 2
 250 338 l 1
 250 342 l 1
 370 342 l 2
 446 342 470 451 470 540 c 0
 470 629 446 746 370 746 c 2
 15 746 l 1
 15 750 l 1
 410 750 l 2
 611 750 700 670 700 540 c 0
 700 410 611 338 410 338 c 2
EndSplineSet
EndChar

StartChar: Q
Encoding: 81 81 28
GlifName: Q_
Width: 800
Flags: HMW
LayerCount: 2
Fore
SplineSet
400 -10 m 0
 177 -10 40 152 40 375 c 0
 40 598 187 760 400 760 c 0
 613 760 760 598 760 375 c 0
 760 152 623 -10 400 -10 c 0
400 756 m 0
 306 756 275 607 275 375 c 0
 275 143 296 -6 400 -6 c 0
 504 -6 525 143 525 375 c 0
 525 607 494 756 400 756 c 0
630 -246 m 1
 630 -250 l 1
 347 -250 280 -213 280 10 c 1
 360 -14 439 -14 515 10 c 1
 515 -172 516 -246 630 -246 c 1
EndSplineSet
EndChar

StartChar: R
Encoding: 82 82 29
GlifName: R_
Width: 790
Flags: HMW
LayerCount: 2
Fore
SplineSet
385 383 m 2
 195 383 l 1
 195 387 l 1
 335 387 l 2
 431 387 475 436 475 565 c 0
 475 694 431 746 335 746 c 2
 15 746 l 1
 15 750 l 1
 385 750 l 2
 566 750 695 695 695 565 c 0
 695 435 576 383 385 383 c 2
15 4 m 1
 410 4 l 1
 410 0 l 1
 15 0 l 1
 15 4 l 1
105 750 m 1
 320 750 l 1
 320 0 l 1
 105 0 l 1
 105 750 l 1
780 15 m 1
 764 6 706 -10 630 -10 c 0
 317 -10 586 383 340 383 c 2
 195 383 l 1
 195 385 l 1
 480 385 l 2
 793 385 598 4 721 4 c 0
 742 4 764 12 778 18 c 1
 780 15 l 1
EndSplineSet
Substitution2: "'ss01' Style Set 1 lookup 2-1" R.alt
EndChar

StartChar: S
Encoding: 83 83 30
GlifName: S_
Width: 635
Flags: HMW
LayerCount: 2
Fore
SplineSet
555 515 m 1
 550 515 l 1
 490 653 412 754 288 754 c 0
 222 754 190 704 190 645 c 0
 190 490 595 530 595 230 c 0
 595 80 466 -15 325 -15 c 0
 169 -15 94 135 40 255 c 1
 45 255 l 1
 98 137 175 -10 324 -10 c 0
 410 -10 455 56 455 125 c 0
 455 300 50 225 50 545 c 0
 50 685 166 760 287 760 c 0
 415 760 495 656 555 515 c 1
551 760 m 1
 555 760 l 1
 555 515 l 1
 521 592 475 665 425 710 c 1
 551 760 l 1
44 -10 m 1
 40 -10 l 1
 40 255 l 1
 82 165 133 84 177 44 c 1
 44 -10 l 1
EndSplineSet
EndChar

StartChar: T
Encoding: 84 84 31
GlifName: T_
Width: 725
Flags: HMW
LayerCount: 2
Fore
SplineSet
145 4 m 1
 580 4 l 1
 580 0 l 1
 145 0 l 1
 145 4 l 1
255 748 m 1
 470 748 l 1
 470 0 l 1
 255 0 l 1
 255 748 l 1
500 746 m 2
 225 746 l 2
 128 746 49 622 19 495 c 1
 15 495 l 1
 15 750 l 1
 710 750 l 1
 710 495 l 1
 706 495 l 1
 676 622 597 746 500 746 c 2
EndSplineSet
EndChar

StartChar: U
Encoding: 85 85 32
GlifName: U_
Width: 750
Flags: HMW
LayerCount: 2
Fore
SplineSet
540 750 m 1
 735 750 l 1
 735 746 l 1
 540 746 l 1
 540 750 l 1
15 750 m 1
 420 750 l 1
 420 746 l 1
 15 746 l 1
 15 750 l 1
633 750 m 1
 637 750 l 1
 637 230 l 2
 637 65 563 -15 395 -15 c 0
 192 -15 105 57 105 230 c 2
 105 750 l 1
 320 750 l 1
 320 240 l 2
 320 108 337 0 451 0 c 0
 553 0 633 67 633 230 c 2
 633 750 l 1
EndSplineSet
EndChar

StartChar: V
Encoding: 86 86 33
GlifName: V_
Width: 820
Flags: HMW
LayerCount: 2
Fore
SplineSet
810 746 m 1
 590 746 l 1
 590 750 l 1
 810 750 l 1
 810 746 l 1
440 746 m 1
 10 746 l 1
 10 750 l 1
 440 750 l 1
 440 746 l 1
513 187 m 1
 711 750 l 1
 716 750 l 1
 445 -15 l 1
 345 -15 l 1
 80 750 l 1
 330 750 l 1
 513 187 l 1
EndSplineSet
EndChar

StartChar: W
Encoding: 87 87 34
GlifName: W_
Width: 1230
Flags: HMW
LayerCount: 2
Fore
SplineSet
667 475 m 1
 480 -10 l 1
 395 -10 l 1
 79 750 l 1
 331 750 l 1
 556 203 l 1
 669 494 l 1
 667 475 l 1
764 456 m 1
 766 474 l 1
 879 750 l 1
 883 750 l 1
 764 456 l 1
1220 746 m 1
 1020 746 l 1
 1020 750 l 1
 1220 750 l 1
 1220 746 l 1
681 750 m 1
 906 203 l 1
 1120 750 l 1
 1124 750 l 1
 830 -10 l 1
 776 -10 l 1
 459 750 l 1
 681 750 l 1
980 746 m 1
 10 746 l 1
 10 750 l 1
 980 750 l 1
 980 746 l 1
EndSplineSet
EndChar

StartChar: X
Encoding: 88 88 35
GlifName: X_
Width: 850
Flags: HMW
LayerCount: 2
Fore
SplineSet
426 377 m 1
 419 377 l 1
 676 748 l 1
 681 748 l 1
 426 377 l 1
124 0 m 1
 117 0 l 1
 413 417 l 1
 420 417 l 1
 124 0 l 1
440 4 m 1
 840 4 l 1
 840 0 l 1
 440 0 l 1
 440 4 l 1
10 4 m 1
 250 4 l 1
 250 0 l 1
 10 0 l 1
 10 4 l 1
445 746 m 1
 45 746 l 1
 45 750 l 1
 445 750 l 1
 445 746 l 1
785 746 m 1
 565 746 l 1
 565 750 l 1
 785 750 l 1
 785 746 l 1
776 0 m 1
 536 0 l 1
 105 750 l 1
 341 750 l 1
 776 0 l 1
EndSplineSet
EndChar

StartChar: Y
Encoding: 89 89 36
GlifName: Y_
Width: 765
Flags: HMW
LayerCount: 2
Fore
SplineSet
755 746 m 1
 545 746 l 1
 545 750 l 1
 755 750 l 1
 755 746 l 1
420 746 m 1
 10 746 l 1
 10 750 l 1
 420 750 l 1
 420 746 l 1
195 4 m 1
 600 4 l 1
 600 0 l 1
 195 0 l 1
 195 4 l 1
497 389 m 1
 661 748 l 1
 667 748 l 1
 500 383 l 1
 500 0 l 1
 285 0 l 1
 285 360 l 1
 70 750 l 1
 320 750 l 1
 497 389 l 1
EndSplineSet
EndChar

StartChar: Z
Encoding: 90 90 37
GlifName: Z_
Width: 675
Flags: HMW
LayerCount: 2
Fore
SplineSet
30 750 m 1
 630 750 l 1
 630 746 l 1
 255 4 l 1
 400 4 l 2
 537 4 596 93 636 220 c 1
 640 220 l 1
 640 0 l 1
 10 0 l 1
 10 4 l 1
 385 746 l 1
 270 746 l 2
 133 746 74 657 34 550 c 1
 30 550 l 1
 30 750 l 1
EndSplineSet
EndChar

StartChar: a
Encoding: 97 97 38
GlifName: a
Width: 631
VWidth: 1155
Flags: HMW
LayerCount: 2
Fore
SplineSet
632 63 m 1
 609 13 547 -10 474 -10 c 0
 397 -10 332 14 332 83 c 2
 332 305 l 2
 332 392 301 462 231 462 c 0
 183 462 136 441 119 428 c 1
 200 463 277 420 277 358 c 0
 277 308 223 271 168 271 c 0
 108 271 66 310 66 356 c 0
 66 423 153 468 264 468 c 0
 444 468 522 406 522 305 c 2
 522 48 l 2
 522 28 535 13 559 13 c 0
 574 13 607 23 628 64 c 1
 632 63 l 1
250 253 m 2
 384 253 l 1
 384 249 l 1
 320 249 l 2
 274 249 233 195 233 133 c 0
 233 78 250 57 275 57 c 0
 296 57 332 80 332 181 c 1
 335 181 l 1
 335 57 277 -10 166 -10 c 0
 87 -10 31 39 31 113 c 0
 31 197 108 253 250 253 c 2
EndSplineSet
EndChar

StartChar: b
Encoding: 98 98 39
GlifName: b
Width: 663
VWidth: 1155
Flags: HMW
LayerCount: 2
Fore
SplineSet
267 230 m 0
 267 382 322 469 427 469 c 0
 536 469 639 380 639 230 c 0
 639 80 536 -10 427 -10 c 0
 323 -10 267 78 267 230 c 0
271 230 m 0
 271 80 331 8 380 8 c 0
 414 8 424 76 424 230 c 0
 424 384 414 451 380 451 c 0
 331 451 271 380 271 230 c 0
81 746 m 1
 11 746 l 1
 11 750 l 1
 271 750 l 1
 271 0 l 1
 11 0 l 1
 11 4 l 1
 81 4 l 1
 81 746 l 1
EndSplineSet
EndChar

StartChar: c
Encoding: 99 99 40
GlifName: c
Width: 540
VWidth: 1155
Flags: HMW
LayerCount: 2
Fore
SplineSet
473 398 m 1
 452 427 388 464 324 464 c 0
 255 464 251 324 251 230 c 0
 251 116 273 4 333 4 c 0
 411 4 474 59 499 143 c 1
 504 143 l 1
 478 56 415 -10 294 -10 c 0
 133 -10 26 60 26 230 c 0
 26 380 119 470 300 470 c 0
 412 470 511 408 511 326 c 0
 511 265 469 229 409 229 c 0
 354 229 302 255 302 330 c 0
 302 395 358 425 397 425 c 0
 435 425 455 416 473 398 c 1
EndSplineSet
EndChar

StartChar: d
Encoding: 100 100 41
GlifName: d
Width: 663
VWidth: 1155
Flags: HMW
LayerCount: 2
Fore
SplineSet
397 230 m 0
 397 78 343 -10 238 -10 c 0
 129 -10 26 80 26 230 c 0
 26 380 129 469 238 469 c 0
 342 469 397 382 397 230 c 0
394 230 m 0
 394 383 332 451 284 451 c 0
 250 451 241 385 241 230 c 0
 241 75 252 10 286 10 c 0
 334 10 394 77 394 230 c 0
654 4 m 1
 654 0 l 1
 394 0 l 1
 394 746 l 1
 324 746 l 1
 324 750 l 1
 584 750 l 1
 584 4 l 1
 654 4 l 1
EndSplineSet
EndChar

StartChar: e
Encoding: 101 101 42
GlifName: e
Width: 538
VWidth: 1155
Flags: HMW
LayerCount: 2
Fore
SplineSet
93 259 m 1
 93 263 l 1
 322 263 l 1
 321 360 320 466 281 466 c 0
 242 466 231 364 231 250 c 0
 231 106 247 2 326 2 c 0
 413 2 484 60 509 143 c 1
 514 143 l 1
 488 56 415 -10 284 -10 c 0
 133 -10 26 70 26 230 c 0
 26 390 130 470 281 470 c 0
 430 470 513 368 513 259 c 1
 93 259 l 1
EndSplineSet
EndChar

StartChar: f
Encoding: 102 102 43
GlifName: f
Width: 420
VWidth: 1155
Flags: HMW
LayerCount: 2
Fore
SplineSet
6 4 m 1
 396 4 l 1
 396 0 l 1
 6 0 l 1
 6 4 l 1
6 460 m 1
 416 460 l 1
 416 456 l 1
 6 456 l 1
 6 460 l 1
516 686 m 1
 501 708 465 756 384 756 c 0
 304 756 276 667 276 540 c 2
 276 0 l 1
 96 0 l 1
 96 512 l 2
 96 663 223 760 383 760 c 0
 474 760 536 698 536 631 c 0
 536 570 499 529 439 529 c 0
 384 529 333 563 333 623 c 0
 333 680 379 722 430 722 c 0
 469 722 496 706 516 686 c 1
EndSplineSet
EndChar

StartChar: g
Encoding: 103 103 44
GlifName: g
Width: 667
VWidth: 1155
Flags: HMW
LayerCount: 2
Fore
SplineSet
43 56 m 0
 43 132 173 164 268 164 c 1
 268 161 l 1
 225 161 151 153 151 124 c 0
 151 102 203 99 258 99 c 0
 293 99 331 100 359 100 c 0
 434 100 536 54 536 -82 c 0
 536 -203 436 -260 276 -260 c 0
 153 -260 11 -230 11 -144 c 0
 11 -62 131 -52 176 -52 c 2
 186 -52 l 1
 161 -65 156 -108 156 -120 c 0
 156 -208 208 -255 284 -255 c 0
 369 -255 495 -235 495 -143 c 0
 495 -89 421 -59 356 -59 c 0
 325 -59 264 -59 242 -59 c 0
 152 -59 43 -36 43 56 c 0
231 315 m 0
 231 221 236 164 265 164 c 0
 284 164 299 221 299 315 c 0
 299 409 284 466 265 466 c 0
 246 466 231 409 231 315 c 0
36 315 m 0
 36 425 154 470 265 470 c 0
 376 470 494 425 494 315 c 0
 494 205 376 160 265 160 c 0
 154 160 36 205 36 315 c 0
652 390 m 1
 643 422 613 461 549 461 c 0
 490 461 432 432 412 345 c 1
 409 347 l 1
 429 438 489 465 549 465 c 0
 630 465 663 407 663 369 c 0
 663 304 622 284 587 284 c 0
 552 284 512 306 512 359 c 0
 512 397 541 431 584 431 c 0
 618 431 646 410 652 390 c 1
EndSplineSet
EndChar

StartChar: h
Encoding: 104 104 45
GlifName: h
Width: 655
VWidth: 1155
Flags: HMW
LayerCount: 2
Fore
SplineSet
386 326 m 2
 386 410 378 420 350 420 c 0
 298 420 271 316 271 223 c 1
 267 223 l 1
 267 325 291 470 434 470 c 0
 541 470 576 406 576 319 c 2
 576 0 l 1
 386 0 l 1
 386 326 l 2
346 4 m 1
 646 4 l 1
 646 0 l 1
 346 0 l 1
 346 4 l 1
11 4 m 1
 311 4 l 1
 311 0 l 1
 11 0 l 1
 11 4 l 1
81 746 m 1
 11 746 l 1
 11 750 l 1
 271 750 l 1
 271 0 l 1
 81 0 l 1
 81 746 l 1
EndSplineSet
EndChar

StartChar: i
Encoding: 105 105 46
GlifName: i
Width: 346
VWidth: 1155
Flags: HMW
LayerCount: 2
Fore
SplineSet
16 4 m 1
 346 4 l 1
 346 0 l 1
 16 0 l 1
 16 4 l 1
61 650 m 0
 61 713 108 760 171 760 c 0
 234 760 281 713 281 650 c 0
 281 587 234 540 171 540 c 0
 108 540 61 587 61 650 c 0
86 456 m 1
 16 456 l 1
 16 460 l 1
 276 460 l 1
 276 0 l 1
 86 0 l 1
 86 456 l 1
EndSplineSet
EndChar

StartChar: j
Encoding: 106 106 47
GlifName: j
Width: 357
VWidth: 1155
Flags: HMW
LayerCount: 2
Fore
SplineSet
78 650 m 0
 78 713 125 760 188 760 c 0
 251 760 298 713 298 650 c 0
 298 587 251 540 188 540 c 0
 125 540 78 587 78 650 c 0
291 460 m 1
 291 -12 l 2
 291 -143 164 -260 14 -260 c 0
 -87 -260 -169 -206 -169 -131 c 0
 -169 -71 -119 -29 -62 -29 c 0
 -7 -29 44 -63 44 -123 c 0
 44 -178 4 -219 -65 -219 c 0
 -120 -219 -151 -188 -156 -153 c 1
 -151 -205 -85 -253 -6 -253 c 0
 114 -253 96 -105 96 22 c 2
 101 456 l 1
 11 456 l 1
 11 460 l 1
 291 460 l 1
EndSplineSet
EndChar

StartChar: k
Encoding: 107 107 48
GlifName: k
Width: 686
VWidth: 1155
Flags: HMW
LayerCount: 2
Fore
SplineSet
649 0 m 1
 416 0 l 1
 243 271 l 1
 535 460 l 1
 542 460 l 1
 390 361 l 1
 649 0 l 1
360 4 m 1
 687 4 l 1
 687 0 l 1
 360 0 l 1
 360 4 l 1
623 456 m 1
 400 456 l 1
 400 460 l 1
 623 460 l 1
 623 456 l 1
11 4 m 1
 331 4 l 1
 331 0 l 1
 11 0 l 1
 11 4 l 1
101 746 m 1
 11 746 l 1
 11 750 l 1
 291 750 l 1
 291 0 l 1
 101 0 l 1
 101 746 l 1
EndSplineSet
EndChar

StartChar: l
Encoding: 108 108 49
GlifName: l
Width: 390
VWidth: 1155
Flags: HMW
LayerCount: 2
Fore
SplineSet
11 4 m 1
 381 4 l 1
 381 0 l 1
 11 0 l 1
 11 4 l 1
101 746 m 1
 11 746 l 1
 11 750 l 1
 291 750 l 1
 291 0 l 1
 101 0 l 1
 101 746 l 1
EndSplineSet
EndChar

StartChar: m
Encoding: 109 109 50
GlifName: m
Width: 920
VWidth: 1155
Flags: HMW
LayerCount: 2
Fore
SplineSet
556 319 m 2
 556 0 l 1
 366 0 l 1
 366 326 l 2
 366 410 352 421 333 421 c 0
 297 421 271 328 271 223 c 1
 267 223 l 1
 267 325 281 470 424 470 c 0
 521 470 556 406 556 319 c 2
11 4 m 1
 306 4 l 1
 306 0 l 1
 11 0 l 1
 11 4 l 1
331 4 m 1
 591 4 l 1
 591 0 l 1
 331 0 l 1
 331 4 l 1
616 4 m 1
 911 4 l 1
 911 0 l 1
 616 0 l 1
 616 4 l 1
81 456 m 1
 11 456 l 1
 11 460 l 1
 271 460 l 1
 271 0 l 1
 81 0 l 1
 81 456 l 1
841 319 m 2
 841 0 l 1
 651 0 l 1
 651 326 l 2
 651 410 637 421 618 421 c 0
 582 421 556 328 556 223 c 1
 552 223 l 1
 552 325 565 470 709 470 c 0
 806 470 841 406 841 319 c 2
EndSplineSet
EndChar

StartChar: n
Encoding: 110 110 51
GlifName: n
Width: 655
VWidth: 1155
Flags: HMW
LayerCount: 2
Fore
SplineSet
386 326 m 2
 386 410 378 420 350 420 c 0
 298 420 271 316 271 223 c 1
 267 223 l 1
 267 325 291 470 434 470 c 0
 541 470 576 406 576 319 c 2
 576 0 l 1
 386 0 l 1
 386 326 l 2
346 4 m 1
 646 4 l 1
 646 0 l 1
 346 0 l 1
 346 4 l 1
11 4 m 1
 311 4 l 1
 311 0 l 1
 11 0 l 1
 11 4 l 1
81 456 m 1
 11 456 l 1
 11 460 l 1
 271 460 l 1
 271 0 l 1
 81 0 l 1
 81 456 l 1
EndSplineSet
EndChar

StartChar: o
Encoding: 111 111 52
GlifName: o
Width: 568
VWidth: 1155
Flags: HMW
LayerCount: 2
Fore
SplineSet
221 230 m 0
 221 86 246 -6 285 -6 c 0
 324 -6 349 86 349 230 c 0
 349 374 324 466 285 466 c 0
 246 466 221 374 221 230 c 0
26 230 m 0
 26 360 124 470 285 470 c 0
 446 470 544 360 544 230 c 0
 544 100 446 -10 285 -10 c 0
 124 -10 26 100 26 230 c 0
EndSplineSet
EndChar

StartChar: p
Encoding: 112 112 53
GlifName: p
Width: 663
VWidth: 1155
Flags: HMW
LayerCount: 2
Fore
SplineSet
267 230 m 0
 267 382 322 469 427 469 c 0
 536 469 639 380 639 230 c 0
 639 80 536 -10 427 -10 c 0
 323 -10 267 78 267 230 c 0
271 230 m 0
 271 77 334 8 380 8 c 0
 415 8 424 78 424 230 c 0
 424 382 415 451 380 451 c 0
 332 451 271 383 271 230 c 0
11 -246 m 1
 341 -246 l 1
 341 -250 l 1
 11 -250 l 1
 11 -246 l 1
81 456 m 1
 11 456 l 1
 11 460 l 1
 271 460 l 1
 271 -250 l 1
 81 -250 l 1
 81 456 l 1
EndSplineSet
EndChar

StartChar: q
Encoding: 113 113 54
GlifName: q
Width: 663
VWidth: 1155
Flags: HMW
LayerCount: 2
Fore
SplineSet
397 230 m 0
 397 78 343 -10 238 -10 c 0
 129 -10 26 80 26 230 c 0
 26 380 129 469 238 469 c 0
 342 469 397 382 397 230 c 0
394 230 m 0
 394 383 332 451 284 451 c 0
 250 451 241 382 241 230 c 0
 241 78 250 10 284 10 c 0
 335 10 394 77 394 230 c 0
654 -246 m 1
 654 -250 l 1
 324 -250 l 1
 324 -246 l 1
 654 -246 l 1
654 460 m 1
 654 456 l 1
 584 456 l 1
 584 -250 l 1
 394 -250 l 1
 394 460 l 1
 654 460 l 1
EndSplineSet
EndChar

StartChar: r
Encoding: 114 114 55
GlifName: r
Width: 537
VWidth: 1155
Flags: HMW
LayerCount: 2
Fore
SplineSet
519 382 m 1
 506 432 454 466 404 466 c 0
 274 466 271 330 271 223 c 1
 267 223 l 1
 267 345 275 470 406 470 c 0
 472 470 538 418 538 339 c 0
 538 280 498 228 430 228 c 0
 367 228 321 271 321 333 c 0
 321 436 461 477 519 382 c 1
11 4 m 1
 341 4 l 1
 341 0 l 1
 11 0 l 1
 11 4 l 1
81 456 m 1
 11 456 l 1
 11 460 l 1
 271 460 l 1
 271 0 l 1
 81 0 l 1
 81 456 l 1
EndSplineSet
EndChar

StartChar: s
Encoding: 115 115 56
GlifName: s
Width: 460
VWidth: 1155
Flags: HMW
LayerCount: 2
Fore
SplineSet
379 364 m 1
 364 388 340 414 323 428 c 1
 399 470 l 1
 403 470 l 1
 403 330 l 1
 399 330 l 1
 379 364 l 1
403 330 m 1
 399 330 l 1
 359 393 310 465 213 465 c 0
 159 465 131 438 131 409 c 0
 131 313 441 350 441 152 c 0
 441 33 337 -10 250 -10 c 0
 146 -10 81 52 36 160 c 1
 39 160 l 1
 87 52 151 -6 248 -6 c 0
 316 -6 348 24 348 56 c 0
 348 149 43 109 43 315 c 0
 43 409 118 469 213 469 c 0
 311 469 363 396 403 330 c 1
39 -10 m 1
 35 -10 l 1
 35 160 l 1
 39 160 l 1
 58 114 l 1
 76 83 100 56 116 41 c 1
 39 -10 l 1
EndSplineSet
EndChar

StartChar: t
Encoding: 116 116 57
GlifName: t
Width: 400
VWidth: 1155
Flags: HMW
LayerCount: 2
Fore
SplineSet
1 460 m 1
 371 460 l 1
 371 456 l 1
 1 456 l 1
 1 460 l 1
401 102 m 1
 377 38 316 -7 215 -7 c 0
 103 -7 74 36 74 121 c 2
 74 560 l 1
 134 560 214 565 264 590 c 1
 264 95 l 2
 264 45 275 20 302 20 c 0
 330 20 373 43 397 103 c 1
 401 102 l 1
EndSplineSet
EndChar

StartChar: u
Encoding: 117 117 58
GlifName: u
Width: 655
VWidth: 1155
Flags: HMW
LayerCount: 2
Fore
SplineSet
271 460 m 1
 271 134 l 2
 271 50 279 40 307 40 c 0
 359 40 386 144 386 237 c 1
 389 237 l 1
 389 135 366 -10 223 -10 c 0
 116 -10 81 54 81 141 c 2
 81 456 l 1
 11 456 l 1
 11 460 l 1
 271 460 l 1
576 4 m 1
 646 4 l 1
 646 0 l 1
 386 0 l 1
 386 456 l 1
 326 456 l 1
 326 460 l 1
 576 460 l 1
 576 4 l 1
EndSplineSet
EndChar

StartChar: v
Encoding: 118 118 59
GlifName: v
Width: 599
VWidth: 1155
Flags: HMW
LayerCount: 2
Fore
SplineSet
604 456 m 1
 410 456 l 1
 410 460 l 1
 604 460 l 1
 604 456 l 1
336 456 m 1
 -5 456 l 1
 -5 460 l 1
 336 460 l 1
 336 456 l 1
380 137 m 1
 508 460 l 1
 515 460 l 1
 327 -10 l 1
 253 -10 l 1
 60 460 l 1
 270 460 l 1
 380 137 l 1
EndSplineSet
EndChar

StartChar: w
Encoding: 119 119 60
GlifName: w
Width: 885
VWidth: 1155
Flags: HMW
LayerCount: 2
Fore
SplineSet
356 456 m 1
 -5 456 l 1
 -5 460 l 1
 356 460 l 1
 356 456 l 1
890 456 m 1
 676 456 l 1
 676 460 l 1
 890 460 l 1
 890 456 l 1
345 148 m 1
 470 470 l 1
 605 470 l 1
 691 174 l 1
 786 460 l 1
 791 460 l 1
 634 -10 l 1
 559 -10 l 1
 424 339 l 1
 288 -10 l 1
 213 -10 l 1
 60 460 l 1
 264 460 l 1
 345 148 l 1
EndSplineSet
EndChar

StartChar: x
Encoding: 120 120 61
GlifName: x
Width: 594
VWidth: 1155
Flags: HMW
LayerCount: 2
Fore
SplineSet
248 4 m 1
 589 4 l 1
 589 0 l 1
 248 0 l 1
 248 4 l 1
5 4 m 1
 194 4 l 1
 194 0 l 1
 5 0 l 1
 5 4 l 1
341 456 m 1
 5 456 l 1
 5 460 l 1
 341 460 l 1
 341 456 l 1
579 456 m 1
 405 456 l 1
 405 460 l 1
 579 460 l 1
 579 456 l 1
544 0 m 1
 324 0 l 1
 60 460 l 1
 270 460 l 1
 544 0 l 1
83 0 m 1
 76 0 l 1
 491 460 l 1
 498 460 l 1
 83 0 l 1
EndSplineSet
EndChar

StartChar: y
Encoding: 121 121 62
GlifName: y
Width: 638
VWidth: 1155
Flags: HMW
LayerCount: 2
Fore
SplineSet
406 456 m 1
 -15 456 l 1
 -15 460 l 1
 406 460 l 1
 406 456 l 1
653 456 m 1
 458 456 l 1
 458 460 l 1
 653 460 l 1
 653 456 l 1
437 184 m 1
 327 -29 l 1
 59 460 l 1
 289 460 l 1
 437 184 l 1
250 -180 m 1
 572 460 l 1
 579 460 l 1
 251 -188 l 2
 234 -222 200 -251 152 -251 c 0
 97 -251 52 -214 52 -156 c 0
 52 -103 95 -54 157 -54 c 0
 213 -54 264 -108 250 -180 c 1
EndSplineSet
EndChar

StartChar: z
Encoding: 122 122 63
GlifName: z
Width: 500
VWidth: 1155
Flags: HMW
LayerCount: 2
Fore
SplineSet
212 456 m 2
 138 456 68 389 38 288 c 1
 34 288 l 1
 34 460 l 1
 475 460 l 1
 475 456 l 1
 214 4 l 1
 290 4 l 2
 387 4 456 60 486 184 c 1
 491 184 l 1
 491 0 l 1
 6 0 l 1
 6 4 l 1
 266 456 l 1
 212 456 l 2
EndSplineSet
EndChar

StartChar: comma
Encoding: 44 44 65
GlifName: comma
Width: 335
Flags: HMW
LayerCount: 2
Fore
SplineSet
40 109 m 0
 40 172 99 228 167 228 c 0
 236 228 297 167 297 64 c 0
 297 -66 188 -156 38 -156 c 1
 38 -152 l 1
 186 -152 320 -57 286 116 c 1
 282 55 232 -10 159 -10 c 0
 87 -10 40 46 40 109 c 0
EndSplineSet
EndChar

StartChar: exclam
Encoding: 33 33 67
GlifName: exclam
Width: 440
Flags: HMW
LayerCount: 2
Fore
SplineSet
338 619 m 0
 327 503 221 408 221 308 c 1
 217 308 l 1
 217 408 111 503 100 619 c 0
 99 626 100 632 100 638 c 0
 100 704 142 758 219 758 c 0
 296 758 339 704 339 638 c 0
 339 632 339 626 338 619 c 0
EndSplineSet
Refer: 1 46 N 1 0 0 1 60 0 2
EndChar

StartChar: quotesingle
Encoding: 39 39 70
GlifName: quotesingle
Width: 320
Flags: HMW
LayerCount: 2
Fore
SplineSet
269 641 m 24
 258 566 162 528 162 418 c 1
 158 418 l 1
 158 528 62 566 51 641 c 24
 50 648 50 653 50 659 c 0
 50 718 101 760 160 760 c 0
 219 760 270 718 270 659 c 0
 270 653 270 648 269 641 c 24
EndSplineSet
EndChar

StartChar: question
Encoding: 63 63 75
GlifName: question
Width: 620
Flags: HMW
LayerCount: 2
Fore
SplineSet
255 367 m 1
 332 398 349 467 349 560 c 0
 349 654 344 749 265 749 c 0
 170 749 83 670 73 611 c 1
 80 630 117 660 166 660 c 0
 225 660 274 625 274 565 c 0
 274 500 232 459 167 459 c 0
 97 459 60 505 60 571 c 0
 60 663 154 760 306 760 c 0
 467 760 570 680 570 560 c 0
 570 445 450 373 259 364 c 1
 259 279 l 1
 255 279 l 1
 255 367 l 1
EndSplineSet
Refer: 1 46 N 1 0 0 1 129 0 2
EndChar

StartChar: parenleft
Encoding: 40 40 76
GlifName: parenleft
Width: 382
Flags: HMW
LayerCount: 2
Fore
SplineSet
365 -167 m 1
 363 -170 l 1
 200 -100 65 92 65 325 c 0
 65 558 200 730 363 800 c 1
 365 797 l 1
 291 747 280 517 280 325 c 0
 280 133 291 -117 365 -167 c 1
EndSplineSet
EndChar

StartChar: at
Encoding: 64 64 79
GlifName: at
Width: 1010
VWidth: 1155
Flags: HMW
LayerCount: 2
Fore
SplineSet
545 367 m 0
 545 205 485 70 355 70 c 0
 265 70 204 126 204 230 c 0
 204 380 308 529 431 529 c 0
 531 529 545 449 545 367 c 0
539 346 m 0
 539 388 539 463 517 463 c 0
 484 463 425 364 425 240 c 0
 425 173 440 137 464 137 c 0
 495 137 539 236 539 346 c 0
520 210 m 2
 592 520 l 1
 802 520 l 1
 727 197 l 2
 716 148 700 94 746 94 c 0
 839 94 951 218 951 401 c 0
 951 581 835 786 584 786 c 0
 296 786 59 522 59 211 c 0
 59 -100 239 -210 419 -210 c 0
 582 -210 697 -159 781 -61 c 1
 785 -64 l 1
 701 -162 582 -214 419 -214 c 0
 236 -214 55 -103 55 211 c 0
 55 524 292 790 585 790 c 0
 838 790 955 584 955 401 c 0
 955 231 862 68 661 68 c 0
 512 68 506 148 520 210 c 2
EndSplineSet
EndChar

StartChar: dollar
Encoding: 36 36 80
GlifName: dollar
Width: 635
Flags: HMW
LayerCount: 2
Fore
SplineSet
325 830 m 1
 330 830 l 1
 330 -80 l 1
 325 -80 l 1
 325 830 l 1
256 830 m 1
 261 830 l 1
 261 -80 l 1
 256 -80 l 1
 256 830 l 1
543 642 m 1
 515 713 411 753 325 753 c 0
 259 753 190 722 190 654 c 0
 190 481 595 530 595 230 c 0
 595 90 486 -15 315 -15 c 0
 119 -15 25 80 25 165 c 0
 25 231 66 277 130 277 c 0
 180 277 224 235 224 171 c 0
 224 111 167 86 123 86 c 0
 81 86 48 107 33 145 c 1
 46 69 141 -9 305 -9 c 0
 411 -9 455 38 455 116 c 0
 455 309 50 225 50 545 c 0
 50 675 186 760 307 760 c 0
 425 760 555 706 555 605 c 0
 555 539 519 503 455 503 c 0
 405 503 361 533 361 594 c 0
 361 651 408 684 452 684 c 0
 489 684 522 673 543 642 c 1
EndSplineSet
EndChar

StartChar: numbersign
Encoding: 35 35 81
GlifName: numbersign
Width: 630
Flags: HMW
LayerCount: 2
Fore
SplineSet
30 252 m 1
 570 252 l 1
 570 247 l 1
 30 247 l 1
 30 252 l 1
60 518 m 1
 600 518 l 1
 600 513 l 1
 60 513 l 1
 60 518 l 1
452 754 m 1
 457 755 l 1
 357 -5 l 1
 352 -6 l 1
 452 754 l 1
263 755 m 1
 268 755 l 1
 168 -5 l 1
 163 -5 l 1
 263 755 l 1
EndSplineSet
EndChar

StartChar: slash
Encoding: 47 47 82
GlifName: slash
Width: 520
Flags: HMW
LayerCount: 2
Fore
SplineSet
476 780 m 1
 480 780 l 1
 44 -150 l 1
 40 -150 l 1
 476 780 l 1
EndSplineSet
EndChar

StartChar: percent
Encoding: 37 37 83
GlifName: percent
Width: 1040
Flags: HMW
LayerCount: 2
Fore
SplineSet
725 210 m 0
 725 40 741 -6 765 -6 c 0
 789 -6 805 40 805 210 c 0
 805 380 789 426 765 426 c 0
 741 426 725 380 725 210 c 0
525 210 m 0
 525 353 652 430 765 430 c 0
 878 430 1005 353 1005 210 c 0
 1005 67 858 -10 765 -10 c 0
 652 -10 525 67 525 210 c 0
780 750 m 1
 785 750 l 1
 260 0 l 1
 255 0 l 1
 780 750 l 1
235 540 m 0
 235 370 251 324 275 324 c 0
 299 324 315 370 315 540 c 0
 315 710 299 756 275 756 c 0
 251 756 235 710 235 540 c 0
35 540 m 0
 35 683 162 760 275 760 c 0
 388 760 515 683 515 540 c 0
 515 397 368 320 275 320 c 0
 162 320 35 397 35 540 c 0
EndSplineSet
EndChar

StartChar: hyphen
Encoding: 45 45 85
GlifName: hyphen
Width: 360
Flags: HMW
LayerCount: 2
Fore
SplineSet
60 277 m 1
 300 277 l 1
 300 273 l 1
 60 273 l 1
 60 277 l 1
EndSplineSet
EndChar

StartChar: plus
Encoding: 43 43 87
GlifName: plus
Width: 530
Flags: HMW
LayerCount: 2
Fore
SplineSet
263 110 m 1
 263 520 l 1
 267 520 l 1
 267 110 l 1
 263 110 l 1
60 318 m 1
 470 318 l 1
 470 314 l 1
 60 314 l 1
 60 318 l 1
EndSplineSet
EndChar

StartChar: less
Encoding: 60 60 89
GlifName: less
Width: 560
Flags: HMW
LayerCount: 2
Fore
SplineSet
60 386 m 1
 60 390 l 1
 500 600 l 1
 500 596 l 1
 60 386 l 1
60 385 m 1
 60 389 l 1
 500 179 l 1
 500 175 l 1
 60 385 l 1
EndSplineSet
EndChar

StartChar: backslash
Encoding: 92 92 91
GlifName: backslash
Width: 520
Flags: HMW
LayerCount: 2
Fore
SplineSet
45 780 m 1
 480 -150 l 1
 475 -150 l 1
 40 780 l 1
 45 780 l 1
EndSplineSet
EndChar

StartChar: bracketleft
Encoding: 91 91 92
GlifName: bracketleft
Width: 385
Flags: HMW
LayerCount: 2
Fore
SplineSet
355 -150 m 1
 55 -150 l 1
 55 -146 l 1
 355 -146 l 1
 355 -150 l 1
355 776 m 1
 55 776 l 1
 55 780 l 1
 355 780 l 1
 355 776 l 1
265 780 m 1
 265 -150 l 1
 55 -150 l 1
 55 780 l 1
 265 780 l 1
EndSplineSet
EndChar

StartChar: braceleft
Encoding: 123 123 93
GlifName: braceleft
Width: 392
VWidth: 1155
Flags: HMW
LayerCount: 2
Fore
SplineSet
362 780 m 1
 362 776 l 1
 300 776 268 710 268 647 c 0
 268 591 302 541 302 461 c 0
 302 378 249 334 55 314 c 1
 55 318 l 1
 85 328 115 355 115 396 c 0
 115 459 55 504 55 621 c 0
 55 730 127 780 362 780 c 1
362 -150 m 1
 127 -150 55 -99 55 10 c 0
 55 127 115 172 115 235 c 0
 115 276 85 303 55 313 c 1
 55 317 l 1
 249 297 302 253 302 170 c 0
 302 90 268 40 268 -16 c 0
 268 -79 300 -146 362 -146 c 1
 362 -150 l 1
EndSplineSet
EndChar

StartChar: bar
Encoding: 124 124 96
GlifName: bar
Width: 230
VWidth: 1155
Flags: HMW
LayerCount: 2
Fore
SplineSet
113 780 m 1
 117 780 l 1
 117 -250 l 1
 113 -250 l 1
 113 780 l 1
EndSplineSet
EndChar

StartChar: cent
Encoding: 162 162 98
GlifName: cent
Width: 540
VWidth: 1155
Flags: HMW
LayerCount: 2
Fore
SplineSet
304 555 m 1
 304 -85 l 1
 301 -85 l 1
 301 555 l 1
 304 555 l 1
EndSplineSet
Refer: 40 99 N 1 0 0 1 0 0 2
EndChar

StartChar: sterling
Encoding: 163 163 99
GlifName: sterling
Width: 687
VWidth: 1155
Flags: HMW
LayerCount: 2
Fore
SplineSet
662 277 m 1
 662 32 601 -30 462 -30 c 0
 325 -30 250 30 187 30 c 0
 146 30 87 10 77 -20 c 1
 74 -20 l 1
 84 54 209 217 322 217 c 0
 402 217 451 183 507 183 c 0
 588 183 658 195 658 277 c 1
 662 277 l 1
465 397 m 1
 465 393 l 1
 15 393 l 1
 15 397 l 1
 465 397 l 1
78 550 m 0
 78 690 193 760 384 760 c 0
 546 760 652 653 652 571 c 0
 652 500 607 444 542 444 c 0
 477 444 416 490 416 560 c 0
 416 625 474 675 533 675 c 0
 591 675 618 642 631 623 c 1
 598 691 516 747 424 747 c 0
 355 747 309 704 309 610 c 0
 309 511 365 485 365 390 c 0
 365 200 63 205 76 -20 c 1
 72 -20 l 1
 53 119 159 197 159 261 c 0
 159 375 78 435 78 550 c 0
EndSplineSet
EndChar

StartChar: section
Encoding: 167 167 101
GlifName: section
Width: 506
VWidth: 1155
Flags: HMW
LayerCount: 2
Fore
SplineSet
165 659 m 0
 165 553 458 543 458 390 c 0
 458 308 399 291 355 265 c 1
 351 265 l 1
 375 281 397 284 397 319 c 0
 397 410 72 406 72 588 c 0
 72 692 157 760 272 760 c 0
 350 760 466 735 466 629 c 0
 466 578 431 537 376 537 c 0
 326 537 292 577 292 623 c 0
 292 665 330 705 379 705 c 0
 416 705 440 689 453 670 c 1
 428 736 342 756 272 756 c 0
 220 756 165 708 165 659 c 0
464 162 m 0
 464 58 379 -10 244 -10 c 0
 156 -10 30 25 30 121 c 0
 30 172 65 213 120 213 c 0
 170 213 204 173 204 127 c 0
 204 85 168 49 119 49 c 0
 74 49 49 74 42 93 c 1
 59 27 156 -6 244 -6 c 0
 327 -6 371 52 371 91 c 0
 371 197 58 192 58 345 c 0
 58 427 117 464 161 490 c 1
 165 490 l 1
 143 478 122 461 122 436 c 0
 122 345 464 344 464 162 c 0
EndSplineSet
EndChar

StartChar: asciitilde
Encoding: 126 126 104
GlifName: asciitilde
Width: 688
VWidth: 1155
Flags: HMW
LayerCount: 2
Fore
SplineSet
194 407 m 0
 141 407 104 385 104 343 c 1
 100 343 l 1
 100 458 150 540 249 540 c 0
 359 540 379 446 484 446 c 0
 547 446 584 468 584 510 c 1
 588 510 l 1
 588 395 538 313 439 313 c 0
 312 313 306 407 194 407 c 0
EndSplineSet
EndChar

StartChar: copyright
Encoding: 169 169 105
GlifName: copyright
Width: 870
Flags: HMW
LayerCount: 2
Fore
SplineSet
50 375 m 0
 50 588 222 760 435 760 c 0
 648 760 820 588 820 375 c 0
 820 162 648 -10 435 -10 c 0
 222 -10 50 162 50 375 c 0
54 375 m 0
 54 165 225 -6 435 -6 c 0
 645 -6 816 165 816 375 c 0
 816 585 645 756 435 756 c 0
 225 756 54 585 54 375 c 0
EndSplineSet
Refer: 14 67 N 0.6 0 0 0.6 192 150 2
EndChar

StartChar: registered
Encoding: 174 174 106
GlifName: registered
Width: 870
Flags: HMW
LayerCount: 2
Fore
SplineSet
50 375 m 0
 50 588 222 760 435 760 c 0
 648 760 820 588 820 375 c 0
 820 162 648 -10 435 -10 c 0
 222 -10 50 162 50 375 c 0
54 375 m 0
 54 165 225 -6 435 -6 c 0
 645 -6 816 165 816 375 c 0
 816 585 645 756 435 756 c 0
 225 756 54 585 54 375 c 0
EndSplineSet
Refer: 29 82 N 0.6 0 0 0.6 208 148 2
EndChar

StartChar: logicalnot
Encoding: 172 172 107
GlifName: logicalnot
Width: 486
Flags: HMW
LayerCount: 2
Fore
SplineSet
422 611 m 1
 60 611 l 1
 60 615 l 1
 426 615 l 1
 426 413 l 1
 422 413 l 1
 422 611 l 1
EndSplineSet
EndChar

StartChar: guillemotleft
Encoding: 171 171 108
GlifName: guillemotleft
Width: 755
Flags: HMW
LayerCount: 2
Fore
SplineSet
551 388 m 1
 697 147 l 1
 695 145 l 1
 305 384 l 1
 305 391 l 1
 695 630 l 1
 697 628 l 1
 551 388 l 1
251 388 m 1
 417 147 l 1
 415 145 l 1
 25 384 l 1
 25 391 l 1
 415 630 l 1
 417 628 l 1
 251 388 l 1
EndSplineSet
EndChar

StartChar: mu
Encoding: 181 181 111
GlifName: mu
Width: 594
VWidth: 1155
Flags: HMW
LayerCount: 2
Fore
SplineSet
251 -123 m 0
 284 -123 310 -152 310 -190 c 0
 310 -229 289 -260 216 -260 c 0
 146 -260 86 -211 86 -121 c 2
 86 321 l 1
 89 321 l 1
 89 -121 l 2
 89 -208 149 -264 235 -254 c 1
 235 -254 l 1
 210 -244 191 -221 191 -185 c 0
 191 -152 218 -123 251 -123 c 0
EndSplineSet
Refer: 58 117 N 1 0 0 1 0 0 2
EndChar

StartChar: asciicircum
Encoding: 94 94 113
GlifName: asciicircum
Width: 545
Flags: HMW
LayerCount: 2
Fore
SplineSet
272 723 m 1
 103 628 l 1
 100 630 l 1
 240 770 l 1
 305 770 l 1
 445 630 l 1
 442 628 l 1
 272 723 l 1
EndSplineSet
EndChar

StartChar: degree
Encoding: 176 176 115
GlifName: degree
Width: 320
Flags: HMW
LayerCount: 2
Fore
SplineSet
40 680 m 0
 40 746 94 800 160 800 c 0
 226 800 280 746 280 680 c 0
 280 614 226 560 160 560 c 0
 94 560 40 614 40 680 c 0
65 680 m 0
 65 625 105 585 160 585 c 0
 215 585 255 625 255 680 c 0
 255 735 215 775 160 775 c 0
 105 775 65 735 65 680 c 0
EndSplineSet
EndChar

StartChar: onequarter
Encoding: 188 188 119
GlifName: onequarter
Width: 701
Flags: HMW
LayerCount: 2
Fore
SplineSet
522 650 m 1
 526 650 l 1
 44 -100 l 1
 40 -100 l 1
 522 650 l 1
EndSplineSet
Refer: 6 52 N 0.6 0 0 0.6 270 -103 2
Refer: 3 49 N 0.6 0 0 0.6 -8 356 2
EndChar

StartChar: onehalf
Encoding: 189 189 120
GlifName: onehalf
Width: 730
Flags: HMW
LayerCount: 2
Fore
SplineSet
522 650 m 1
 526 650 l 1
 44 -100 l 1
 40 -100 l 1
 522 650 l 1
EndSplineSet
Refer: 4 50 N 0.6 0 0 0.6 341 -101 2
Refer: 3 49 N 0.6 0 0 0.6 -8 356 2
EndChar

StartChar: threequarters
Encoding: 190 190 121
GlifName: threequarters
Width: 761
Flags: HMW
LayerCount: 2
Fore
SplineSet
582 650 m 1
 586 650 l 1
 104 -100 l 1
 100 -100 l 1
 582 650 l 1
EndSplineSet
Refer: 5 51 N 0.6 0 0 0.6 5 354 2
Refer: 6 52 N 0.6 0 0 0.6 330 -103 2
EndChar

StartChar: grave
Encoding: 96 96 123
GlifName: grave
Width: 425
Flags: HMW
LayerCount: 2
Fore
SplineSet
150 680 m 2
 101 670 55 706 55 755 c 0
 55 804 110 850 160 828 c 2
 368 732 l 1
 365 728 l 1
 150 680 l 2
EndSplineSet
EndChar

StartChar: acute
Encoding: 180 180 124
GlifName: acute
Width: 425
Flags: HMW
LayerCount: 2
Fore
SplineSet
275 680 m 2
 60 728 l 1
 57 732 l 1
 265 828 l 2
 315 850 370 804 370 755 c 0
 370 706 324 670 275 680 c 2
EndSplineSet
EndChar

StartChar: cedilla
Encoding: 184 184 128
GlifName: cedilla
Width: 550
Flags: HMW
LayerCount: 2
Fore
SplineSet
289 -140 m 0
 289 -87 252 -79 217 -79 c 1
 307 41 l 1
 314 41 l 1
 254 -39 l 1
 374 -42 440 -64 440 -120 c 0
 440 -170 392 -220 211 -220 c 1
 211 -216 l 1
 270 -216 289 -183 289 -140 c 0
EndSplineSet
EndChar

StartChar: ring
Encoding: 730 730 271
GlifName: ring
Width: 320
VWidth: 0
Flags: HMW
LayerCount: 2
Fore
SplineSet
50 680 m 0
 50 731 89 770 160 770 c 0
 231 770 270 731 270 680 c 0
 270 629 231 590 160 590 c 0
 89 590 50 629 50 680 c 0
135 680 m 0
 135 619 143 594 160 594 c 0
 177 594 185 619 185 680 c 0
 185 741 177 766 160 766 c 0
 143 766 135 741 135 680 c 0
EndSplineSet
EndChar

StartChar: tilde
Encoding: 732 732 272
GlifName: tilde
Width: 448
VWidth: 0
Flags: HMW
LayerCount: 2
Fore
SplineSet
113 639 m 0
 72 639 54 612 54 590 c 1
 50 590 l 1
 50 675 70 757 149 757 c 0
 239 757 259 678 335 678 c 0
 376 678 394 705 394 727 c 1
 398 727 l 1
 398 632 398 560 309 560 c 0
 222 560 196 639 113 639 c 0
EndSplineSet
EndChar

StartChar: AE
Encoding: 198 198 274
GlifName: A_E_
Width: 1090
Flags: HMW
LayerCount: 2
Fore
SplineSet
525 750 m 1
 530 750 l 1
 109 0 l 1
 103 0 l 1
 525 750 l 1
15 4 m 1
 235 4 l 1
 235 0 l 1
 15 0 l 1
 15 4 l 1
245 247 m 1
 535 247 l 1
 535 243 l 1
 245 243 l 1
 245 247 l 1
525 750 m 1
 740 750 l 1
 740 0 l 1
 525 0 l 1
 525 750 l 1
525 750 m 1
 1050 750 l 1
 1050 545 l 1
 1046 545 l 1
 1016 652 917 746 810 746 c 2
 525 746 l 1
 525 750 l 1
1060 0 m 1
 435 0 l 1
 435 4 l 1
 800 4 l 2
 927 4 1026 98 1056 225 c 1
 1060 225 l 1
 1060 0 l 1
906 248 m 1
 876 315 807 386 750 386 c 2
 690 386 l 1
 690 390 l 1
 750 390 l 2
 807 390 876 456 906 523 c 1
 910 523 l 1
 910 248 l 1
 906 248 l 1
EndSplineSet
EndChar

StartChar: ae
Encoding: 230 230 277
GlifName: ae
Width: 903
VWidth: 1155
Flags: HMW
LayerCount: 2
Fore
SplineSet
70 356 m 0
 70 423 157 468 268 468 c 0
 398 468 496 406 496 305 c 1
 501 181 l 1
 501 57 361 -10 240 -10 c 0
 101 -10 35 39 35 113 c 0
 35 197 112 261 254 261 c 2
 478 261 l 1
 478 257 l 1
 324 257 l 2
 278 257 237 195 237 113 c 0
 237 46 256 -3 281 -3 c 0
 308 -3 336 50 336 131 c 2
 336 305 l 2
 336 372 315 463 235 463 c 0
 197 463 135 444 112 419 c 1
 194 463 281 420 281 358 c 0
 281 308 227 271 172 271 c 0
 112 271 70 310 70 356 c 0
686 262 m 1
 685 359 684 466 645 466 c 0
 606 466 595 364 595 250 c 0
 595 136 604 1 684 1 c 0
 780 1 849 59 874 143 c 1
 878 143 l 1
 852 56 779 -10 648 -10 c 0
 527 -10 430 70 430 230 c 0
 430 390 524 470 645 470 c 0
 794 470 877 367 877 258 c 1
 525 258 l 1
 525 262 l 1
 686 262 l 1
EndSplineSet
EndChar

StartChar: uni2010
Encoding: 8208 8208 279
GlifName: uni2010
Width: 360
Flags: HMW
LayerCount: 2
Fore
SplineSet
60 277 m 1
 300 277 l 1
 300 273 l 1
 60 273 l 1
 60 277 l 1
EndSplineSet
EndChar

StartChar: uni2011
Encoding: 8209 8209 280
GlifName: uni2011
Width: 287
Flags: HMW
LayerCount: 2
Fore
SplineSet
60 277 m 1
 227 277 l 1
 227 273 l 1
 60 273 l 1
 60 277 l 1
EndSplineSet
EndChar

StartChar: figuredash
Encoding: 8210 8210 282
GlifName: figuredash
Width: 445
Flags: HMW
LayerCount: 2
Fore
SplineSet
60 277 m 1
 385 277 l 1
 385 273 l 1
 60 273 l 1
 60 277 l 1
EndSplineSet
EndChar

StartChar: perthousand
Encoding: 8240 8240 285
GlifName: perthousand
Width: 1550
Flags: HMW
LayerCount: 2
Fore
SplineSet
1235 210 m 0
 1235 40 1251 -6 1275 -6 c 0
 1299 -6 1315 40 1315 210 c 0
 1315 380 1299 426 1275 426 c 0
 1251 426 1235 380 1235 210 c 0
1035 210 m 0
 1035 353 1162 430 1275 430 c 0
 1388 430 1515 353 1515 210 c 0
 1515 67 1368 -10 1275 -10 c 0
 1162 -10 1035 67 1035 210 c 0
725 210 m 0
 725 40 741 -6 765 -6 c 0
 789 -6 805 40 805 210 c 0
 805 380 789 426 765 426 c 0
 741 426 725 380 725 210 c 0
525 210 m 0
 525 353 652 430 765 430 c 0
 878 430 1005 353 1005 210 c 0
 1005 67 858 -10 765 -10 c 0
 652 -10 525 67 525 210 c 0
780 750 m 1
 785 750 l 1
 260 0 l 1
 255 0 l 1
 780 750 l 1
235 540 m 0
 235 370 251 324 275 324 c 0
 299 324 315 370 315 540 c 0
 315 710 299 756 275 756 c 0
 251 756 235 710 235 540 c 0
35 540 m 0
 35 683 162 760 275 760 c 0
 388 760 515 683 515 540 c 0
 515 397 368 320 275 320 c 0
 162 320 35 397 35 540 c 0
EndSplineSet
EndChar

StartChar: uni2031
Encoding: 8241 8241 286
GlifName: uni2031
Width: 2060
Flags: HMW
LayerCount: 2
Fore
SplineSet
1745 210 m 0
 1745 40 1761 -6 1785 -6 c 0
 1809 -6 1825 40 1825 210 c 0
 1825 380 1809 426 1785 426 c 0
 1761 426 1745 380 1745 210 c 0
1545 210 m 0
 1545 353 1672 430 1785 430 c 0
 1898 430 2025 353 2025 210 c 0
 2025 67 1878 -10 1785 -10 c 0
 1672 -10 1545 67 1545 210 c 0
1235 210 m 0
 1235 40 1251 -6 1275 -6 c 0
 1299 -6 1315 40 1315 210 c 0
 1315 380 1299 426 1275 426 c 0
 1251 426 1235 380 1235 210 c 0
1035 210 m 0
 1035 353 1162 430 1275 430 c 0
 1388 430 1515 353 1515 210 c 0
 1515 67 1368 -10 1275 -10 c 0
 1162 -10 1035 67 1035 210 c 0
725 210 m 0
 725 40 741 -6 765 -6 c 0
 789 -6 805 40 805 210 c 0
 805 380 789 426 765 426 c 0
 741 426 725 380 725 210 c 0
525 210 m 0
 525 353 652 430 765 430 c 0
 878 430 1005 353 1005 210 c 0
 1005 67 858 -10 765 -10 c 0
 652 -10 525 67 525 210 c 0
780 750 m 1
 785 750 l 1
 260 0 l 1
 255 0 l 1
 780 750 l 1
235 540 m 0
 235 370 251 324 275 324 c 0
 299 324 315 370 315 540 c 0
 315 710 299 756 275 756 c 0
 251 756 235 710 235 540 c 0
35 540 m 0
 35 683 162 760 275 760 c 0
 388 760 515 683 515 540 c 0
 515 397 368 320 275 320 c 0
 162 320 35 397 35 540 c 0
EndSplineSet
EndChar

StartChar: uniFB00
Encoding: 64256 64256 290
GlifName: uniF_B_00
Width: 770
VWidth: 1155
Flags: HMW
LayerCount: 2
Fore
SplineSet
10 4 m 1
 740 4 l 1
 740 0 l 1
 10 0 l 1
 10 4 l 1
10 460 m 1
 760 460 l 1
 760 456 l 1
 10 456 l 1
 10 460 l 1
544 620 m 1
 531 665 462 705 407 705 c 0
 327 705 280 617 280 490 c 2
 280 0 l 1
 100 0 l 1
 100 462 l 2
 100 613 227 710 397 710 c 0
 488 710 560 648 560 581 c 0
 560 520 523 479 463 479 c 0
 408 479 357 513 357 573 c 0
 357 633 396 672 450 672 c 0
 500 672 544 620 544 620 c 1
866 668 m 1
 855 708 807 755 737 755 c 0
 657 755 620 667 620 540 c 2
 620 0 l 1
 440 0 l 1
 440 512 l 2
 440 663 567 760 727 760 c 0
 818 760 880 698 880 631 c 0
 880 570 843 529 783 529 c 0
 728 529 677 563 677 623 c 0
 677 683 724 722 778 722 c 0
 819 722 856 694 866 668 c 1
EndSplineSet
Ligature2: "'liga' Standard Ligatures lookup 0-1" f f
LCarets2: 1 0
EndChar

StartChar: uniFB01
Encoding: 64257 64257 291
GlifName: uniF_B_01
Width: 700
VWidth: 1155
Flags: HMW
LayerCount: 2
Fore
SplineSet
100 512 m 2
 100 673 227 760 427 760 c 0
 538 760 610 698 610 631 c 0
 610 570 573 529 513 529 c 0
 458 529 407 563 407 623 c 0
 407 683 453 720 507 720 c 0
 548 720 582 700 597 660 c 1
 580 720 510 756 427 756 c 0
 317 756 280 667 280 540 c 2
 280 0 l 1
 100 0 l 1
 100 512 l 2
10 4 m 1
 680 4 l 1
 680 0 l 1
 10 0 l 1
 10 4 l 1
420 456 m 1
 10 456 l 1
 10 460 l 1
 610 460 l 1
 610 0 l 1
 420 0 l 1
 420 456 l 1
EndSplineSet
Ligature2: "'liga' Standard Ligatures lookup 0-1" f i
LCarets2: 1 0
EndChar

StartChar: uniFB02
Encoding: 64258 64258 292
GlifName: uniF_B_02
Width: 780
VWidth: 1155
Flags: HMW
LayerCount: 2
Fore
SplineSet
10 4 m 1
 765 4 l 1
 765 0 l 1
 10 0 l 1
 10 4 l 1
10 460 m 1
 420 460 l 1
 420 456 l 1
 10 456 l 1
 10 460 l 1
485 730 m 1
 675 770 l 1
 675 0 l 1
 485 0 l 1
 485 730 l 1
529 661 m 1
 519 704 469 754 397 754 c 0
 317 754 280 667 280 540 c 2
 280 0 l 1
 100 0 l 1
 100 512 l 2
 100 663 227 760 387 760 c 0
 478 760 540 698 540 631 c 0
 540 570 503 529 443 529 c 0
 388 529 337 563 337 623 c 0
 337 683 376 722 430 722 c 0
 498 722 529 661 529 661 c 1
EndSplineSet
Ligature2: "'liga' Standard Ligatures lookup 0-1" f l
LCarets2: 1 0
EndChar

StartChar: uniFB03
Encoding: 64259 64259 293
GlifName: uniF_B_03
Width: 1020
VWidth: 1155
Flags: HMW
LayerCount: 2
Fore
SplineSet
420 512 m 2
 420 673 547 760 747 760 c 0
 858 760 930 698 930 631 c 0
 930 570 893 529 833 529 c 0
 778 529 727 563 727 623 c 0
 727 683 770 720 824 720 c 0
 877 720 907 695 917 660 c 1
 899 719 832 755 747 755 c 0
 637 755 600 667 600 540 c 2
 600 0 l 1
 420 0 l 1
 420 512 l 2
10 4 m 1
 1000 4 l 1
 1000 0 l 1
 10 0 l 1
 10 4 l 1
100 462 m 2
 100 612 227 710 397 710 c 0
 488 710 560 648 560 581 c 0
 560 520 523 479 463 479 c 0
 408 479 357 513 357 573 c 0
 357 633 396 672 450 672 c 0
 500 672 534 637 534 637 c 1
 512 673 464 704 407 704 c 0
 327 704 280 617 280 490 c 2
 280 0 l 1
 100 0 l 1
 100 462 l 2
740 456 m 1
 10 456 l 1
 10 460 l 1
 930 460 l 1
 930 0 l 1
 740 0 l 1
 740 456 l 1
EndSplineSet
Ligature2: "'liga' Standard Ligatures lookup 0-1" f f i
LCarets2: 2 0 0
EndChar

StartChar: uniFB04
Encoding: 64260 64260 294
GlifName: uniF_B_04
Width: 1120
VWidth: 1155
Flags: HMW
LayerCount: 2
Fore
SplineSet
10 4 m 1
 1105 4 l 1
 1105 0 l 1
 10 0 l 1
 10 4 l 1
10 460 m 1
 760 460 l 1
 760 456 l 1
 10 456 l 1
 10 460 l 1
825 730 m 1
 1015 770 l 1
 1015 0 l 1
 825 0 l 1
 825 730 l 1
535 638 m 1
 513 674 462 705 407 705 c 0
 327 705 280 617 280 490 c 2
 280 0 l 1
 100 0 l 1
 100 462 l 2
 100 612 227 710 397 710 c 0
 488 710 560 648 560 581 c 0
 560 520 523 479 463 479 c 0
 408 479 357 513 357 573 c 0
 357 633 396 672 450 672 c 0
 492 672 535 638 535 638 c 1
866 669 m 1
 851 723 787 756 737 756 c 0
 657 756 620 667 620 540 c 2
 620 0 l 1
 440 0 l 1
 440 512 l 2
 440 663 567 760 727 760 c 0
 818 760 880 698 880 631 c 0
 880 570 843 529 783 529 c 0
 728 529 677 563 677 623 c 0
 677 683 716 722 770 722 c 0
 838 722 866 669 866 669 c 1
EndSplineSet
Ligature2: "'liga' Standard Ligatures lookup 0-1" f f l
LCarets2: 2 0 0
EndChar

StartChar: ogonek
Encoding: 731 731 295
GlifName: ogonek
Width: 550
Flags: HMW
LayerCount: 2
Fore
SplineSet
413 -133 m 1
 398 -161 379 -206 278 -206 c 0
 197 -206 140 -180 140 -120 c 0
 140 -40 258 18 349 43 c 1
 351 40 l 1
 340 33 313 -12 313 -84 c 0
 313 -151 337 -178 361 -178 c 0
 382 -178 396 -159 410 -131 c 1
 413 -133 l 1
EndSplineSet
EndChar

StartChar: dotlessi
Encoding: 305 305 296
GlifName: dotlessi
Width: 370
VWidth: 1155
Flags: HMW
LayerCount: 2
Fore
SplineSet
20 4 m 1
 350 4 l 1
 350 0 l 1
 20 0 l 1
 20 4 l 1
90 456 m 1
 20 456 l 1
 20 460 l 1
 280 460 l 1
 280 0 l 1
 90 0 l 1
 90 456 l 1
EndSplineSet
EndChar

StartChar: uni0237
Encoding: 567 567 297
GlifName: uni0237
Width: 367
VWidth: 1155
Flags: HMW
LayerCount: 2
Fore
SplineSet
295 460 m 1
 295 -12 l 2
 295 -143 168 -260 18 -260 c 0
 -83 -260 -165 -207 -165 -131 c 0
 -165 -70 -116 -29 -58 -29 c 0
 -3 -29 48 -63 48 -123 c 0
 48 -179 9 -219 -61 -219 c 0
 -116 -219 -147 -188 -152 -153 c 1
 -147 -205 -80 -253 -1 -253 c 0
 119 -253 101 -105 101 22 c 2
 105 456 l 1
 15 456 l 1
 15 460 l 1
 295 460 l 1
EndSplineSet
EndChar

StartChar: kgreenlandic
Encoding: 312 312 306
GlifName: kgreenlandic
Width: 704
VWidth: 1155
Flags: HMW
LayerCount: 2
Fore
SplineSet
653 0 m 1
 420 0 l 1
 247 271 l 1
 539 460 l 1
 546 460 l 1
 393 361 l 1
 653 0 l 1
364 4 m 1
 691 4 l 1
 691 0 l 1
 364 0 l 1
 364 4 l 1
627 456 m 1
 404 456 l 1
 404 460 l 1
 627 460 l 1
 627 456 l 1
15 4 m 1
 335 4 l 1
 335 0 l 1
 15 0 l 1
 15 4 l 1
105 456 m 1
 15 456 l 1
 15 460 l 1
 295 460 l 1
 295 0 l 1
 105 0 l 1
 105 456 l 1
EndSplineSet
EndChar

StartChar: breve
Encoding: 728 728 307
GlifName: breve
Width: 320
VWidth: 1155
Flags: HMW
LayerCount: 2
Fore
SplineSet
34 759 m 1
 34 715 106 705 160 705 c 0
 214 705 286 715 286 759 c 1
 290 759 l 1
 290 628 240 570 160 570 c 0
 80 570 30 628 30 759 c 1
 34 759 l 1
EndSplineSet
EndChar

StartChar: thorn
Encoding: 254 254 318
GlifName: thorn
Width: 673
VWidth: 1155
Flags: HMW
LayerCount: 2
Fore
SplineSet
271 230 m 0
 271 382 326 469 431 469 c 0
 540 469 643 380 643 230 c 0
 643 80 540 -10 431 -10 c 0
 327 -10 271 78 271 230 c 0
275 230 m 0
 275 77 338 8 384 8 c 0
 419 8 428 78 428 230 c 0
 428 382 420 451 385 451 c 0
 337 451 275 383 275 230 c 0
15 -246 m 1
 345 -246 l 1
 345 -250 l 1
 15 -250 l 1
 15 -246 l 1
85 746 m 1
 15 746 l 1
 15 750 l 1
 275 750 l 1
 275 -250 l 1
 85 -250 l 1
 85 746 l 1
EndSplineSet
EndChar

StartChar: Thorn
Encoding: 222 222 319
GlifName: T_horn
Width: 735
Flags: HMW
LayerCount: 2
Fore
SplineSet
105 750 m 1
 320 750 l 1
 320 0 l 1
 105 0 l 1
 105 750 l 1
15 4 m 1
 410 4 l 1
 410 0 l 1
 15 0 l 1
 15 4 l 1
15 750 m 1
 410 750 l 1
 410 746 l 1
 15 746 l 1
 15 750 l 1
430 180 m 2
 300 180 l 1
 300 184 l 1
 360 184 l 2
 456 184 470 301 470 390 c 0
 470 479 456 596 360 596 c 2
 300 596 l 1
 300 600 l 1
 430 600 l 2
 611 600 700 520 700 390 c 0
 700 260 611 180 430 180 c 2
EndSplineSet
EndChar

StartChar: Lslash
Encoding: 321 321 324
GlifName: L_slash
Width: 660
Flags: HMW
LayerCount: 2
Fore
SplineSet
15 360 m 1
 460 580 l 1
 460 575 l 1
 15 355 l 1
 15 360 l 1
EndSplineSet
Refer: 23 76 N 1 0 0 1 0 0 2
EndChar

StartChar: lslash
Encoding: 322 322 325
GlifName: lslash
Width: 390
VWidth: 1155
Flags: HMW
LayerCount: 2
Fore
SplineSet
11 360 m 1
 396 580 l 1
 396 575 l 1
 11 355 l 1
 11 360 l 1
EndSplineSet
Refer: 49 108 N 1 0 0 1 0 0 2
EndChar

StartChar: eth
Encoding: 240 240 329
GlifName: eth
Width: 660
VWidth: 1155
Flags: HMW
LayerCount: 2
Fore
SplineSet
150 630 m 1
 620 630 l 1
 620 626 l 1
 150 626 l 1
 150 630 l 1
610 310 m 0
 610 100 487 -10 316 -10 c 0
 145 -10 30 100 30 250 c 0
 30 420 158 495 279 495 c 0
 364 495 384 407 384 280 c 1
 380 280 l 1
 380 430 345 479 312 479 c 0
 273 479 260 434 260 250 c 0
 260 86 264 -6 313 -6 c 0
 362 -6 380 96 380 280 c 1
 382 335 l 1
 382 507 289 759 105 759 c 1
 105 760 l 1
 397 760 610 571 610 310 c 0
EndSplineSet
EndChar

StartChar: OE
Encoding: 338 338 330
GlifName: O_E_
Width: 1035
Flags: HMW
LayerCount: 2
Fore
SplineSet
410 746 m 1025,0,0
275 375 m 0,0,0
 275 163 316 4 410 4 c 1,0,0
 380 0 l 1,0,0
 177 0 40 152 40 375 c 0,0,0
 40 598 177 750 380 750 c 1,0,0
 410 746 l 1,0,0
 316 746 275 587 275 375 c 0,0,0
EndSplineSet
Refer: 16 69 N 1 0 0 1 365 0 2
EndChar

StartChar: germandbls
Encoding: 223 223 332
GlifName: germandbls
Width: 861
VWidth: 1155
Flags: HMW
LayerCount: 2
Fore
SplineSet
463 403 m 1
 463 407 l 1
 552 407 570 507 570 571 c 0
 570 643 547 755 453 755 c 0
 339 755 315 623 315 481 c 2
 315 0 l 1
 105 0 l 1
 105 491 l 2
 105 684 300 760 463 760 c 0
 606 760 791 704 791 581 c 0
 791 461 664 403 463 403 c 1
15 4 m 1
 405 4 l 1
 405 0 l 1
 15 0 l 1
 15 4 l 1
821 190 m 0
 821 50 682 -10 541 -10 c 0
 430 -10 353 64 353 176 c 0
 353 247 410 281 465 281 c 0
 515 281 569 251 569 185 c 0
 569 123 511 90 462 90 c 0
 416 90 368 119 359 164 c 1
 362 63 439 -3 516 -3 c 0
 585 -3 600 96 600 160 c 0
 600 254 592 403 463 403 c 1
 463 407 l 1
 704 407 821 320 821 190 c 0
EndSplineSet
EndChar

StartChar: circumflex
Encoding: 710 710 335
GlifName: circumflex
Width: 465
Flags: HMW
LayerCount: 2
Fore
SplineSet
232 675 m 1
 52 608 l 1
 50 610 l 1
 180 770 l 1
 285 770 l 1
 415 610 l 1
 413 608 l 1
 232 675 l 1
EndSplineSet
EndChar

StartChar: caron
Encoding: 711 711 336
GlifName: caron
Width: 465
Flags: HMW
LayerCount: 2
Fore
SplineSet
233 715 m 1
 413 782 l 1
 415 780 l 1
 285 620 l 1
 180 620 l 1
 50 780 l 1
 52 782 l 1
 233 715 l 1
EndSplineSet
EndChar

StartChar: pi
Encoding: 960 960 337
GlifName: pi
Width: 681
VWidth: 1155
Flags: HMW
LayerCount: 2
Fore
SplineSet
646 103 m 1
 623 33 581 -10 488 -10 c 0
 401 -10 346 24 346 93 c 2
 346 420 l 1
 536 420 l 1
 536 73 l 2
 536 53 543 32 576 32 c 0
 600 32 624 51 643 105 c 1
 646 103 l 1
144 -10 m 0
 83 -10 35 23 35 78 c 0
 35 196 237 132 237 279 c 2
 237 450 l 1
 293 450 l 1
 293 243 l 2
 293 85 242 -10 144 -10 c 0
626 460 m 1
 626 270 l 1
 45 270 l 1
 45 195 l 1
 41 195 l 1
 41 460 l 1
 626 460 l 1
EndSplineSet
EndChar

StartChar: uni1E9E
Encoding: 7838 7838 338
GlifName: uni1E_9E_
Width: 981
VWidth: 1155
Flags: HMW
LayerCount: 2
Fore
SplineSet
15 4 m 1
 415 4 l 1
 415 0 l 1
 15 0 l 1
 15 4 l 1
703 389 m 1
 642 399 554 414 493 415 c 1
 747 732 l 1
 719 742 657 755 593 755 c 0
 379 755 325 633 325 431 c 2
 325 0 l 1
 105 0 l 1
 105 441 l 2
 105 664 320 760 593 760 c 0
 746 760 871 694 911 651 c 1
 703 389 l 1
394 156 m 1
 412 68 498 1 601 1 c 0
 695 1 720 86 720 210 c 0
 720 314 662 411 493 411 c 1
 493 415 l 1
 814 415 941 345 941 215 c 0
 941 75 802 -10 641 -10 c 0
 469 -10 385 94 385 186 c 0
 385 257 435 306 500 306 c 0
 560 306 604 262 604 196 c 0
 604 134 551 90 492 90 c 0
 443 90 408 125 394 156 c 1
EndSplineSet
EndChar

StartChar: uni203D
Encoding: 8253 8253 339
GlifName: uni203D_
Width: 720
Flags: HMW
LayerCount: 2
Fore
SplineSet
446 554 m 0
 435 458 349 348 349 278 c 1
 345 278 l 1
 345 348 279 458 268 554 c 0
 267 561 267 567 267 573 c 0
 267 601 290 648 357 648 c 0
 424 648 447 601 447 573 c 0
 447 567 447 561 446 554 c 0
60 571 m 0
 60 663 164 760 356 760 c 0
 507 760 670 690 670 550 c 0
 670 410 488 335 347 335 c 1
 347 339 l 1
 424 334 499 449 499 560 c 0
 499 654 442 749 333 749 c 0
 181 749 87 674 73 602 c 1
 80 629 118 660 167 660 c 0
 226 660 254 600 254 565 c 0
 254 495 202 459 157 459 c 0
 107 459 60 500 60 571 c 0
EndSplineSet
Refer: 1 46 N 1 0 0 1 179 0 2
EndChar

StartChar: R.alt
Encoding: 65536 -1 340
GlifName: R_.alt
Width: 780
Flags: HMW
LayerCount: 2
Fore
SplineSet
385 383 m 2
 195 383 l 1
 195 387 l 1
 335 387 l 2
 431 387 475 436 475 565 c 0
 475 694 431 746 335 746 c 2
 15 746 l 1
 15 750 l 1
 385 750 l 2
 566 750 695 695 695 565 c 0
 695 435 576 383 385 383 c 2
15 4 m 1
 410 4 l 1
 410 0 l 1
 15 0 l 1
 15 4 l 1
105 750 m 1
 320 750 l 1
 320 0 l 1
 105 0 l 1
 105 750 l 1
770 0 m 1
 754 0 656 0 620 0 c 0
 327 0 586 383 330 383 c 2
 195 383 l 1
 195 385 l 1
 470 385 l 2
 803 385 592 4 735 4 c 0
 756 4 756 4 770 4 c 1
 770 0 l 1
EndSplineSet
EndChar

StartChar: J.alt
Encoding: 65537 -1 341
GlifName: J_.alt
Width: 726
Flags: HMW
LayerCount: 2
Fore
SplineSet
266 750 m 1
 711 750 l 1
 711 746 l 1
 266 746 l 1
 266 750 l 1
396 750 m 1
 611 750 l 1
 611 170 l 1
 551 50 462 -30 271 -30 c 0
 124 -30 15 75 15 185 c 0
 15 277 82 330 152 330 c 0
 217 330 268 282 268 211 c 0
 268 146 218 92 145 92 c 0
 79 92 41 125 25 156 c 1
 44 52 150 -22 251 -22 c 0
 342 -22 396 50 396 190 c 2
 396 750 l 1
EndSplineSet
EndChar

StartChar: four.alt
Encoding: 65538 -1 342
GlifName: four.alt
Width: 715
VWidth: 1155
Flags: HMW
LayerCount: 2
Fore
SplineSet
650 4 m 1
 650 0 l 1
 265 0 l 1
 265 4 l 1
 650 4 l 1
575 498 m 1
 575 -1 l 1
 360 -1 l 1
 360 428 l 1
 420 428 535 468 575 498 c 1
23 197 m 1
 665 197 l 1
 665 193 l 1
 15 193 l 1
 155 393 300 600 320 750 c 1
 558 750 l 1
 539 555 164 391 23 197 c 1
EndSplineSet
EndChar

StartChar: fj.lig
Encoding: 65539 -1 343
GlifName: fj.lig
Width: 677
VWidth: 1155
Flags: HMW
LayerCount: 2
Fore
SplineSet
10 4 m 1
 370 4 l 1
 370 0 l 1
 10 0 l 1
 10 4 l 1
610 -12 m 2
 610 -143 483 -260 333 -260 c 0
 232 -260 150 -213 150 -136 c 0
 150 -75 197 -29 257 -29 c 0
 312 -29 363 -63 363 -123 c 0
 363 -183 315 -219 259 -219 c 0
 210 -219 178 -191 164 -158 c 1
 172 -213 239 -254 318 -254 c 0
 438 -254 420 -107 420 20 c 2
 420 456 l 1
 10 456 l 1
 10 460 l 1
 610 460 l 1
 610 -12 l 2
586 686 m 1
 560 722 510 755 427 755 c 0
 317 755 280 667 280 540 c 2
 280 0 l 1
 100 0 l 1
 100 512 l 2
 100 673 227 760 427 760 c 0
 538 760 610 698 610 631 c 0
 610 570 573 529 513 529 c 0
 458 529 407 563 407 623 c 0
 407 683 453 720 507 720 c 0
 541 720 570 704 586 686 c 1
EndSplineSet
LCarets2: 1 0
Ligature2: "'liga' Standard Ligatures lookup 0-1" f j
EndChar

StartChar: uni2116
Encoding: 8470 8470 344
Width: 1206
Flags: HW
LayerCount: 2
Fore
SplineSet
925 570 m 0
 925 456 940 384 979 384 c 0
 1018 384 1033 456 1033 570 c 0
 1033 684 1018 756 979 756 c 0
 940 756 925 684 925 570 c 0
780 570 m 0
 780 700 868 760 979 760 c 0
 1090 760 1178 700 1178 570 c 0
 1178 440 1090 380 979 380 c 0
 868 380 780 440 780 570 c 0
EndSplineSet
Refer: 85 45 N 1 0 0 1 799 40 2
Refer: 25 78 N 1 0 0 1 0 0 2
EndChar

StartChar: Euro
Encoding: 8364 8364 345
Width: 740
Flags: HW
LayerCount: 2
Fore
SplineSet
678 661 m 1
 653 704 579 752 489 752 c 0
 370 752 340 589 340 375 c 0
 340 141 376 5 475 5 c 0
 570 5 654 84 679 178 c 1
 683 178 l 1
 657 81 574 -10 433 -10 c 0
 232 -10 95 145 95 375 c 0
 95 585 228 760 459 760 c 0
 611 760 705 678 705 596 c 0
 705 525 658 484 598 484 c 0
 543 484 491 520 491 590 c 0
 491 655 539 695 598 695 c 0
 633 695 667 676 678 661 c 1
EndSplineSet
Refer: 88 61 N 1 0 0 1 -30 -70 2
EndChar
